<svg xmlns="http://www.w3.org/2000/svg" viewBox="0 0 500 500"><g id="freepik--background-complete--inject-162"><rect y="382.4" width="500" height="0.25" style="fill:#ebebeb"></rect><rect x="416.78" y="398.49" width="33.12" height="0.25" style="fill:#ebebeb"></rect><rect x="292.75" y="398.62" width="8.69" height="0.25" style="fill:#ebebeb"></rect><rect x="354.33" y="389.21" width="61.44" height="0.25" style="fill:#ebebeb"></rect><rect x="212.45" y="395.11" width="12.69" height="0.25" style="fill:#ebebeb"></rect><rect x="166.72" y="395.11" width="36.83" height="0.25" style="fill:#ebebeb"></rect><rect x="52.46" y="390.89" width="25.43" height="0.25" style="fill:#ebebeb"></rect><rect x="83.89" y="390.89" width="74.89" height="0.25" style="fill:#ebebeb"></rect><path d="M237,337.8H43.91a5.71,5.71,0,0,1-5.7-5.71V60.66A5.71,5.71,0,0,1,43.91,55H237a5.71,5.71,0,0,1,5.71,5.71V332.09A5.71,5.71,0,0,1,237,337.8ZM43.91,55.2a5.46,5.46,0,0,0-5.45,5.46V332.09a5.46,5.46,0,0,0,5.45,5.46H237a5.47,5.47,0,0,0,5.46-5.46V60.66A5.47,5.47,0,0,0,237,55.2Z" style="fill:#ebebeb"></path><path d="M453.31,337.8H260.21a5.72,5.72,0,0,1-5.71-5.71V60.66A5.72,5.72,0,0,1,260.21,55h193.1A5.71,5.71,0,0,1,459,60.66V332.09A5.71,5.71,0,0,1,453.31,337.8ZM260.21,55.2a5.47,5.47,0,0,0-5.46,5.46V332.09a5.47,5.47,0,0,0,5.46,5.46h193.1a5.47,5.47,0,0,0,5.46-5.46V60.66a5.47,5.47,0,0,0-5.46-5.46Z" style="fill:#ebebeb"></path><path d="M335.44,303.54c-2.25-3.42-.65-9.29,3.34-11.91,10.78-7.1,24.77-12.44,27.45-8.37s-7.83,15-18.61,22.06C343.63,308,337.69,307,335.44,303.54Z" style="fill:#e0e0e0"></path><path d="M319.29,283.79c-16.06,0-32.12,10.06-32.12,20.94,0,29.41,13,63.08,32.12,63.08s32.12-33.67,32.12-63.08C351.41,293.85,335.35,283.79,319.29,283.79Z" style="fill:#e6e6e6"></path><path d="M319.29,283.79A41.81,41.81,0,0,0,307,285.7a57.33,57.33,0,0,0,16.17,2.24,61.46,61.46,0,0,0,11.66-1.11A42.11,42.11,0,0,0,319.29,283.79Z" style="fill:#e0e0e0"></path><path d="M304.66,298.9c-.19-4.09-4.79-8-9.56-7.75-12.89.6-27.49,4.6-27.27,9.47s15.14,7.49,28,6.89C300.63,307.29,304.85,303,304.66,298.9Z" style="fill:#e6e6e6"></path><path d="M319.26,243.36c-18.29,1.92-35.6,13.12-35,18.59,1.55,14.77,17.7,25.9,39.45,23.62s35.25-16.52,33.7-31.29C356.81,248.82,337.55,241.44,319.26,243.36Z" style="fill:#e6e6e6"></path><path d="M319.62,246.76c-15.35,1.61-29.88,11-29.4,15.59,1.3,12.4,14.85,21.74,33.11,19.82s29.57-13.85,28.27-26.25C351.12,251.33,335,245.15,319.62,246.76Z" style="fill:#f0f0f0"></path><ellipse cx="306" cy="266.09" rx="8.15" ry="10.89" transform="translate(-26.08 33.36) rotate(-5.99)" style="fill:#e6e6e6"></ellipse><path d="M312.68,265.39c.39,3.72-1.55,7-4.34,7.27s-5.36-2.49-5.75-6.21,1.55-7,4.34-7.27S312.29,261.67,312.68,265.39Z" style="fill:#f5f5f5"></path><path d="M345.05,262c.63,6-2.49,11.22-7,11.68s-8.61-4-9.24-10,2.49-11.21,7-11.68S344.43,256,345.05,262Z" style="fill:#e6e6e6"></path><path d="M330.26,263.54c.39,3.73,3,6.51,5.75,6.21s4.73-3.54,4.34-7.26-3-6.51-5.75-6.21S329.87,259.82,330.26,263.54Z" style="fill:#f5f5f5"></path><path d="M402.21,303.39c-1.15-3.33-6-5.32-9.87-4-10.49,3.63-21.47,10.37-20.1,14.33s14.31,2.51,24.81-1.12C400.93,311.28,403.36,306.72,402.21,303.39Z" style="fill:#f5f5f5"></path><path d="M408.85,295.55c13.81,0,27.63,8.65,27.63,18,0,25.3-11.2,54.26-27.63,54.26s-27.63-29-27.63-54.26C381.22,304.2,395,295.55,408.85,295.55Z" style="fill:#f5f5f5"></path><path d="M408.85,295.54a35.92,35.92,0,0,1,10.61,1.65,49.28,49.28,0,0,1-13.91,1.92,52.29,52.29,0,0,1-10-1A36.34,36.34,0,0,1,408.85,295.54Z" style="fill:#f5f5f5"></path><path d="M417.39,304.88c1.31-3.27,6.15-5.11,10-3.57,10.29,4.15,21,11.56,19.44,15.44s-14.42,1.78-24.71-2.38C418.27,312.83,416.07,308.15,417.39,304.88Z" style="fill:#f5f5f5"></path><path d="M406.15,261.12c15.76-1.26,32.17,5.48,32.55,10.19,1,12.74-10.88,24.7-29.64,26.2s-32.4-8.41-33.42-21.14C375.26,271.66,390.38,262.39,406.15,261.12Z" style="fill:#f5f5f5"></path><path d="M93.79,308.21c1.06-3.08,5.54-4.92,9.13-3.68,9.71,3.36,19.86,9.59,18.6,13.26s-13.25,2.32-23-1C95,315.51,92.72,311.29,93.79,308.21Z" style="fill:#f5f5f5"></path><path d="M87.65,301c-12.78,0-25.56,8-25.56,16.66,0,23.4,10.35,50.2,25.56,50.2s25.56-26.8,25.56-50.2C113.21,309,100.43,301,87.65,301Z" style="fill:#f5f5f5"></path><path d="M87.65,301a33.31,33.31,0,0,0-9.82,1.52,45.39,45.39,0,0,0,12.87,1.78,49.56,49.56,0,0,0,9.28-.88A33.52,33.52,0,0,0,87.65,301Z" style="fill:#f5f5f5"></path><path d="M79.75,309.59c-1.22-3-5.7-4.73-9.22-3.31-9.52,3.85-19.43,10.7-18,14.29s13.34,1.64,22.86-2.2C78.93,317,81,312.61,79.75,309.59Z" style="fill:#f5f5f5"></path><path d="M90.15,269.11c-14.59-1.17-29.76,5.07-30.11,9.42-.95,11.79,10.06,22.85,27.41,24.24s30-7.78,30.93-19.56C118.72,278.85,104.73,270.28,90.15,269.11Z" style="fill:#f5f5f5"></path><path d="M118.08,108.14c3.62-1.79,5.8-3,5.8-3l.62-5.13-4.31-2.84s-2.33.89-6,2.49c-8.44,3.66-24,11-35.11,20-1.21,1-2.39,2-3.48,3,1.48-.18,3-.42,4.55-.71C94.13,119.3,109.82,112.21,118.08,108.14Z" style="fill:#e0e0e0"></path><path d="M126.19,101.71l11.39,19.46S119,152.7,97.68,161.22c14.41-15.19,26.7-40.73,26.7-40.73l-8.66-13.93Z" style="fill:#e6e6e6"></path><path d="M125.18,100.38l-4.84-22S85.32,67.78,63.85,76c20.9,1.38,47.25,11.79,47.25,11.79l3.1,16.11Z" style="fill:#e6e6e6"></path><path d="M113.33,105.93h0a10.61,10.61,0,0,1,4.75-14.2l17.65-8.8a5.27,5.27,0,0,1,7.05,2.36l4.76,9.55a5.27,5.27,0,0,1-2.36,7l-17.65,8.79A10.62,10.62,0,0,1,113.33,105.93Z" style="fill:#f5f5f5"></path><path d="M135.79,80.19h10.72a4.1,4.1,0,0,1,4.1,4.1V95.46a8.25,8.25,0,0,1-8.25,8.25h-2.42a8.25,8.25,0,0,1-8.25-8.25V84.29a4.1,4.1,0,0,1,4.1-4.1Z" transform="translate(160.5 -75.4) rotate(63.52)" style="fill:#ebebeb"></path><path d="M136.89,82.16h0a18,18,0,0,1,24.32-7.5l29.63,15.65a9,9,0,0,1,3.72,12.08l-8.46,16A9,9,0,0,1,174,122.13L144.4,106.48A18,18,0,0,1,136.89,82.16Z" style="fill:#e6e6e6"></path><circle cx="191.16" cy="111.88" r="26.11" transform="translate(-2.39 219.57) rotate(-59.43)" style="fill:#f5f5f5"></circle><ellipse cx="198.08" cy="117.24" rx="20.94" ry="16.14" transform="translate(-9.08 217.57) rotate(-56.46)" style="fill:#ebebeb"></ellipse><path d="M189.74,121.26c6.36-2,14.45-8.18,17.79-13.42a3.36,3.36,0,0,1,5.05-.84c7.58,7.26,10.58,16,20,26.62,10.94,12.26,36.55,25.93,42.06,39.3-12.69,8.72-37.42,16-41.07,30.39-22.52-14.48-40.65-57-46.07-77.42C187,123.91,187.79,121.86,189.74,121.26Z" style="fill:#e6e6e6"></path><path d="M207.45,382.4H263.8a5.68,5.68,0,0,0,2.83-10.61c-15.48-8.82-36.81-19.93-46.09-19.93C202.48,351.86,207.45,382.4,207.45,382.4Z" style="fill:#e6e6e6"></path><path d="M201.66,379.16c26.48-4.37,31.21-21.48,31.21-21.48l-30.27,1.24Z" style="fill:#e0e0e0"></path><circle cx="209.25" cy="318.02" r="48" style="fill:#f5f5f5"></circle><ellipse cx="219.14" cy="328.23" rx="36.95" ry="31.29" transform="translate(-173.12 284.8) rotate(-49.95)" style="fill:#ebebeb"></ellipse><path d="M211.08,382.4H154.72a5.68,5.68,0,0,1-2.83-10.61C167.37,363,188.7,351.86,198,351.86,216,351.86,211.08,382.4,211.08,382.4Z" style="fill:#e6e6e6"></path><circle cx="260.71" cy="197.86" r="35.73" transform="translate(-66.53 192.51) rotate(-36.26)" style="fill:#f5f5f5"></circle><ellipse cx="265.23" cy="208.95" rx="28.66" ry="22.08" transform="translate(-65.2 139.51) rotate(-26.36)" style="fill:#ebebeb"></ellipse><path d="M210.56,300.56c-1.31-15-15.29-24.81-21.47-26.1,1.18-20.55,29.53-53.61,39.45-61,3.47,5.74,23.56,2.45,29.76-4.64s26.27,1.17,21.26,13S235,243.54,235,278.72c8,6.47,11.05,12.85,10.2,22.52C244.37,308.31,223.82,313.52,210.56,300.56Z" style="fill:#e6e6e6"></path></g><g id="freepik--Shadow--inject-162"><ellipse id="freepik--path--inject-162" cx="255" cy="416.24" rx="193.89" ry="11.32" style="fill:#f5f5f5"></ellipse></g><g id="freepik--robot-body--inject-162"><path d="M166,300.59c5.22-1.58,12.1,2.69,13.94,8.76,5,16.43,6.49,36.3.29,38.18s-16.13-15.65-21.11-32.08C157.28,309.37,160.79,302.17,166,300.59Z" style="fill:#263238"></path><path d="M137.93,286.15c-21.36,0-42.73,13.39-42.73,27.86,0,39.12,17.32,83.91,42.73,83.91s42.74-44.79,42.74-83.91C180.67,299.54,159.3,286.15,137.93,286.15Z" style="fill:#407BFF"></path><path d="M137.93,286.15a55.71,55.71,0,0,0-16.41,2.54,76.09,76.09,0,0,0,21.51,3,82,82,0,0,0,15.52-1.48A55.9,55.9,0,0,0,137.93,286.15Z" style="opacity:0.1"></path><path d="M104.59,304,95.2,314a147.57,147.57,0,0,0,3.89,33.25c5.71-5.91,11.65-17.35,12.68-28.53C112.86,306.8,109.84,305.49,104.59,304Z" style="fill:#263238"></path><path d="M113,300.3c-4.77-2.63-12.38-.11-15.44,5.45-8.28,15-13.89,34.39-8.21,37.52s19-12,27.3-27C119.68,310.7,117.74,302.93,113,300.3Z" style="fill:#407BFF"></path><path d="M144.42,384.39c-19.17,0-32.53-33.36-32.53-63.31,0-11,15.81-21.4,32.53-21.4s32.52,10.4,32.52,21.4C176.94,351,163.58,384.39,144.42,384.39Zm0-83.55c-15.83,0-31.37,10-31.37,20.24,0,29.4,12.88,62.15,31.37,62.15s31.36-32.75,31.36-62.15C175.78,310.87,160.24,300.84,144.42,300.84Z" style="fill:#fff"></path><path d="M145,383.94l-1.13-.26c7.67-32.75,5.62-77.54.16-83l.82-.82C151.17,306.2,152.36,352.41,145,383.94Z" style="fill:#fff"></path><path d="M128.14,365.71c.43.65.49,1.38.13,1.61s-1-.1-1.43-.76-.49-1.37-.13-1.61S127.71,365.06,128.14,365.71Z" style="fill:#fff"></path><path d="M130.41,369.17c.43.65.48,1.37.12,1.61s-1-.11-1.42-.76-.49-1.38-.13-1.61S130,368.51,130.41,369.17Z" style="fill:#fff"></path><path d="M131.69,365.85c.43.66.49,1.38.13,1.61s-1-.1-1.43-.76-.49-1.37-.13-1.61S131.26,365.2,131.69,365.85Z" style="fill:#fff"></path><path d="M134,369.31c.43.65.48,1.37.12,1.61s-1-.11-1.42-.76-.49-1.38-.13-1.61S133.53,368.65,134,369.31Z" style="fill:#fff"></path><path d="M132.67,372.62c.43.65.49,1.38.13,1.61s-1-.1-1.43-.76-.48-1.37-.13-1.61S132.24,372,132.67,372.62Z" style="fill:#fff"></path></g><g id="freepik--robotic-arm--inject-162"><path d="M189.82,185.55c2.77-3.89,4.38-6.36,4.38-6.36L192,173.5l-6.08-.56s-1.93,2.23-4.9,6c-6.75,8.53-18.84,24.91-25.41,40.45q-1.09,2.56-2,5.09c1.45-1,2.91-2.12,4.35-3.29C171.1,210.55,183.49,194.4,189.82,185.55Z"></path><path d="M194.11,181.68l11.52,24s-25,35.33-50.95,43.26c18.46-16.48,35.45-45.35,35.45-45.35l-8.82-17.27Z" style="fill:#263238"></path><path d="M148.26,221c-23.66-6.23-50.48-.44-52.34,6.63-5,19.11,9.83,40.56,38,48s51.63-4,56.66-23.06C192.41,245.47,171.92,227.23,148.26,221Z" style="fill:#407BFF"></path><path d="M147.1,225.39c-19.85-5.22-42.35-.37-43.91,5.56C99,247,111.43,265,135,271.21s43.33-3.32,47.55-19.36C184.15,245.92,167,230.62,147.1,225.39Z" style="opacity:0.1"></path><ellipse cx="121.06" cy="243.03" rx="14.49" ry="10.85" transform="translate(-144.78 298.23) rotate(-75.25)" style="fill:#263238"></ellipse><path d="M102.54,245.51c-1.29,0-2.56-.93-3.59-2.64a17.37,17.37,0,0,1-1.23-13.42c.74-2,1.92-3.17,3.3-3.29s2.74.81,3.84,2.63a15.93,15.93,0,0,1,2,6.59h0a15.81,15.81,0,0,1-.74,6.83c-.75,2-1.92,3.17-3.3,3.29Zm-1.28-18.4h-.15c-1,.09-1.89,1.06-2.49,2.67a16.46,16.46,0,0,0,1.15,12.58c.89,1.47,2,2.25,2.93,2.17s1.89-1.06,2.49-2.67a14.93,14.93,0,0,0,.67-6.4h0a14.65,14.65,0,0,0-1.83-6.18C103.2,227.89,102.19,227.11,101.26,227.11Z" style="fill:#fff"></path><path d="M177.48,265.22a3,3,0,0,1-1.71-.51c-2.28-1.58-1.63-6.32,1.48-10.8h0a15.85,15.85,0,0,1,4.95-4.76c1.85-1.05,3.5-1.19,4.64-.4s1.59,2.38,1.25,4.49a17.38,17.38,0,0,1-7.67,11.07A6.19,6.19,0,0,1,177.48,265.22Zm7.65-16a5.16,5.16,0,0,0-2.46.78,15,15,0,0,0-4.63,4.47h0c-2.7,3.9-3.49,8.23-1.72,9.46.81.56,2.13.4,3.62-.45a16.5,16.5,0,0,0,7.2-10.38c.27-1.7,0-3-.85-3.55A2,2,0,0,0,185.13,249.21Zm-7.49,5h0Z" style="fill:#fff"></path><path d="M129.7,245.31c-1.27,4.81-5.21,7.94-8.82,7s-5.5-5.63-4.23-10.44,5.22-8,8.82-7S131,240.49,129.7,245.31Z" style="fill:#fff"></path><path d="M171.58,256.33c-2,7.74-8.39,12.77-14.18,11.25s-8.84-9-6.8-16.77S159,238,164.78,239.56,173.61,248.59,171.58,256.33Z" style="fill:#263238"></path><ellipse cx="158.97" cy="253.01" rx="9.01" ry="6.75" transform="translate(-126.17 342.34) rotate(-75.25)" style="fill:#fff"></ellipse><path d="M183,172.88l-26.32-4.23s-26.81,33.95-27.06,61.13C140.16,207.39,163,182.92,163,182.92l19.07,3.57Z" style="fill:#263238"></path><path d="M180.12,188.49h0a12.56,12.56,0,0,1,1.21-17.66l17.57-15.32a6.23,6.23,0,0,1,8.77.6l8.29,9.5a6.25,6.25,0,0,1-.6,8.77L197.79,189.7A12.57,12.57,0,0,1,180.12,188.49Z" style="fill:#407BFF"></path><path d="M201.45,150.3h12.68a4.84,4.84,0,0,1,4.84,4.84v13.2a9.75,9.75,0,0,1-9.75,9.75h-2.86a9.75,9.75,0,0,1-9.75-9.75v-13.2a4.84,4.84,0,0,1,4.84-4.84Z" transform="translate(195 -100.33) rotate(48.91)" style="opacity:0.1"></path><path d="M199.19,166.53h0a21.33,21.33,0,0,1,10.13-28.33l35.81-16.94a10.59,10.59,0,0,1,14.06,5l9.17,19.37a10.59,10.59,0,0,1-5,14.06l-35.8,16.95A21.34,21.34,0,0,1,199.19,166.53Z" style="fill:#263238"></path><path d="M222.42,175.48A21.85,21.85,0,0,1,202.65,163a.55.55,0,0,1,1-.48,20.75,20.75,0,0,0,27.59,9.87l35.81-16.94a.55.55,0,1,1,.48,1l-35.81,16.94A21.76,21.76,0,0,1,222.42,175.48Z" style="fill:#fff;opacity:0.1"></path><circle cx="264.47" cy="132.33" r="30.87" transform="translate(73.45 358.08) rotate(-76.34)" style="fill:#407BFF"></circle><ellipse cx="274.74" cy="133.62" rx="24.76" ry="19.08" transform="translate(127.09 401.07) rotate(-87.03)" style="opacity:0.1"></ellipse><path d="M255.25,158.4a14.5,14.5,0,0,1-5.69-1.23,23,23,0,0,1-10.45-9.4c-5.48-9-4.62-19.55,1.92-23.53s16.31.09,21.79,9.09,4.62,19.55-1.92,23.54A10.76,10.76,0,0,1,255.25,158.4Zm-8.58-35a10.07,10.07,0,0,0-5.28,1.43c-6.21,3.78-7,13.91-1.69,22.58a22.37,22.37,0,0,0,10.13,9.12c3.92,1.65,7.72,1.56,10.71-.26,6.21-3.78,7-13.91,1.69-22.58h0C258.3,127.25,252.13,123.4,246.67,123.4Z" style="fill:#fff"></path><path d="M242.43,126.89a.37.37,0,0,1-.24-.1.34.34,0,0,1,0-.48.35.35,0,0,1,.38-.08.28.28,0,0,1,.11.08.34.34,0,0,1,0,.48.26.26,0,0,1-.11.07A.35.35,0,0,1,242.43,126.89Z" style="fill:#fff"></path><path d="M258.86,133.22a.34.34,0,0,1,.08-.48h0a.35.35,0,0,1,.48.07h0a.34.34,0,0,1-.08.48h0a.31.31,0,0,1-.2.07h0A.35.35,0,0,1,258.86,133.22Zm-1.34-1.66a.34.34,0,0,1,0-.48h0a.35.35,0,0,1,.49,0h0a.36.36,0,0,1,0,.49h0a.34.34,0,0,1-.23.08h0A.31.31,0,0,1,257.52,131.56ZM256,130a.35.35,0,0,1,0-.49h0a.34.34,0,0,1,.48,0h0a.35.35,0,0,1,0,.49h0a.36.36,0,0,1-.25.11h0A.33.33,0,0,1,256,130Zm-1.65-1.37a.34.34,0,0,1-.07-.47h0a.34.34,0,0,1,.48-.08h0a.35.35,0,0,1,.07.48h0a.35.35,0,0,1-.27.14h0A.33.33,0,0,1,254.37,128.67Zm-1.78-1.16a.35.35,0,0,1-.13-.47h0a.35.35,0,0,1,.47-.13h0a.36.36,0,0,1,.13.47h0a.35.35,0,0,1-.3.18h0A.34.34,0,0,1,252.59,127.51Zm-1.91-.92a.33.33,0,0,1-.19-.45h0a.34.34,0,0,1,.44-.19h0a.34.34,0,0,1,.19.45h0a.35.35,0,0,1-.32.22h0A.27.27,0,0,1,250.68,126.59Zm-6.59-.8a.33.33,0,0,1,.25-.42h0a.34.34,0,0,1,.42.24h0a.34.34,0,0,1-.25.42h-.09A.34.34,0,0,1,244.09,125.79Zm4.57.19a.34.34,0,0,1-.27-.41h0a.35.35,0,0,1,.41-.26h0a.34.34,0,0,1,.26.4h0a.34.34,0,0,1-.34.28h-.06Zm-2.43-.56a.34.34,0,0,1,.34-.34h0a.35.35,0,0,1,.35.34h0a.35.35,0,0,1-.35.34h0A.34.34,0,0,1,246.23,125.42Z" style="fill:#fff"></path><path d="M260.36,135.17a.35.35,0,0,1-.25-.1A.41.41,0,0,1,260,135a.28.28,0,0,1,0-.13.31.31,0,0,1,0-.13.41.41,0,0,1,.07-.11l.11-.08a.36.36,0,0,1,.38.08.26.26,0,0,1,.07.11.31.31,0,0,1,0,.13.28.28,0,0,1,0,.13.26.26,0,0,1-.07.11A.31.31,0,0,1,260.36,135.17Z" style="fill:#fff"></path><path d="M275.77,148.83c1.34-7.76-.9-19.62-4.64-25.94a4.08,4.08,0,0,1,1.82-5.77c10.61-5,27.92-5.92,44.55-3.32,19.2,3,52.58,17.53,62.36,31.55-12.44,13.31-39.11,28-39.67,45.56-13.49-21.62-35.09-34.92-60.71-37.3A4.11,4.11,0,0,1,275.77,148.83Z" style="fill:#263238"></path><path d="M377.7,156.32a1.11,1.11,0,0,1-.95-.53c-8.8-14.58-41.62-31.06-59.44-35.07-16.92-3.79-33.79-3.67-44,.34a1.11,1.11,0,0,1-.81-2.07c10.64-4.15,28-4.32,45.32-.43,18,4,51.44,20.49,60.85,36.08a1.11,1.11,0,0,1-.37,1.52A1.1,1.1,0,0,1,377.7,156.32Z"></path><path d="M366.32,220.69a.55.55,0,0,1-.54-.45c-3.17-16.07-26.75-42.47-44.15-53.6-14.69-9.4-30.71-15.12-41.81-14.81a.54.54,0,0,1-.56-.54.55.55,0,0,1,.54-.56c11.32-.26,27.56,5.46,42.43,15,15.45,9.89,41.14,36.6,44.63,54.33a.55.55,0,0,1-.43.65Z" style="fill:#fff;opacity:0.1"></path><path d="M340,416.24h66.63A6.72,6.72,0,0,0,410,403.69c-18.29-10.42-43.51-23.55-54.48-23.55C334.15,380.14,340,416.24,340,416.24Z" style="fill:#263238"></path><path d="M333.18,412.41c31.3-5.17,36.9-25.4,36.9-25.4l-35.79,1.48Z"></path><circle cx="342.15" cy="340.13" r="56.74" style="fill:#407BFF"></circle><ellipse cx="353.84" cy="352.2" rx="43.68" ry="37" transform="translate(-143.44 396.47) rotate(-49.95)" style="opacity:0.1"></ellipse><path d="M306.91,375.16c-10.62,0-19.26-15.71-19.26-35s8.64-35,19.26-35,19.26,15.72,19.26,35S317.53,375.16,306.91,375.16Zm0-69c-10,0-18.15,15.22-18.15,33.92s8.14,33.92,18.15,33.92,18.16-15.21,18.16-33.92S316.92,306.21,306.91,306.21Z" style="fill:#fff"></path><path d="M306.91,310.54a.46.46,0,0,1-.21,0,.55.55,0,0,1-.3-.3.57.57,0,0,1,0-.42.66.66,0,0,1,.12-.17.36.36,0,0,1,.18-.12.51.51,0,0,1,.42,0,.61.61,0,0,1,.29.29.47.47,0,0,1,0,.42.36.36,0,0,1-.12.18.66.66,0,0,1-.17.12A.52.52,0,0,1,306.91,310.54Z" style="fill:#fff"></path><path d="M321.47,336.82h0a.54.54,0,0,1,.52-.57h0a.55.55,0,0,1,.58.51h0a.55.55,0,0,1-.51.58h0A.56.56,0,0,1,321.47,336.82Zm-.27-3.28a.55.55,0,0,1,.48-.61h0a.55.55,0,0,1,.6.49h0a.54.54,0,0,1-.48.6h-.06A.54.54,0,0,1,321.2,333.54Zm-.48-3.26a.55.55,0,0,1,.45-.63h0a.54.54,0,0,1,.63.44h0a.55.55,0,0,1-.44.64h-.09A.57.57,0,0,1,320.72,330.28Zm-.67-3.22a.55.55,0,0,1,.4-.66h0a.55.55,0,0,1,.66.4h0a.57.57,0,0,1-.4.67h-.13A.54.54,0,0,1,320.05,327.06Zm-.91-3.15a.55.55,0,0,1,.36-.69h0a.55.55,0,0,1,.69.35h0a.55.55,0,0,1-.35.69h0a.52.52,0,0,1-.17,0h0A.55.55,0,0,1,319.14,323.91ZM318,320.84a.55.55,0,0,1,.29-.72h0a.55.55,0,0,1,.72.29h0a.55.55,0,0,1-.29.72h0a.54.54,0,0,1-.22,0h0A.54.54,0,0,1,318,320.84Zm-1.44-2.93h0a.57.57,0,0,1,.21-.75h0a.55.55,0,0,1,.74.21h0a.55.55,0,0,1-.2.75h0a.54.54,0,0,1-.27.07h0A.55.55,0,0,1,316.55,317.91Zm-1.78-2.71h0a.55.55,0,0,1,.1-.77h0a.54.54,0,0,1,.76.1h0a.55.55,0,0,1-.1.77h0a.51.51,0,0,1-.33.11h0A.54.54,0,0,1,314.77,315.2Zm-2.2-2.33a.55.55,0,0,1-.06-.78h0a.56.56,0,0,1,.78-.06h0a.56.56,0,0,1,0,.78h0a.55.55,0,0,1-.41.19h0A.61.61,0,0,1,312.57,312.87Zm-2.65-1.69a.55.55,0,0,1-.29-.72h0a.55.55,0,0,1,.72-.29h0a.55.55,0,0,1,.29.72h0a.54.54,0,0,1-.51.33h0A.52.52,0,0,1,309.92,311.18Z" style="fill:#fff"></path><path d="M322.11,340.68a.78.78,0,0,1-.21,0,.57.57,0,0,1-.18-.12.42.42,0,0,1-.11-.18.46.46,0,0,1-.05-.21.54.54,0,0,1,.05-.21.45.45,0,0,1,.11-.17.71.71,0,0,1,.18-.12.51.51,0,0,1,.42,0,.57.57,0,0,1,.18.12.66.66,0,0,1,.12.17.57.57,0,0,1,0,.42.57.57,0,0,1-.12.18A.55.55,0,0,1,322.11,340.68Z" style="fill:#fff"></path><path d="M344.31,416.24H277.68a6.72,6.72,0,0,1-3.34-12.55c18.3-10.42,43.52-23.55,54.49-23.55C350.18,380.14,344.31,416.24,344.31,416.24Z" style="fill:#263238"></path><path d="M411.82,160.92a44.94,44.94,0,0,0-4.4-8.31l.92-.62a46.52,46.52,0,0,1,4.51,8.51Z" style="fill:#407BFF"></path><path d="M404,148.16a44.87,44.87,0,0,0-20.88-13.53l.32-1.06a46,46,0,0,1,21.4,13.86Z" style="fill:#407BFF"></path><circle cx="370.08" cy="177.7" r="42.25" transform="translate(64.31 451.65) rotate(-67.51)" style="fill:#407BFF"></circle><ellipse cx="378.12" cy="189.36" rx="33.88" ry="26.11" transform="translate(-35.17 278.91) rotate(-38.83)" style="opacity:0.1"></ellipse><path d="M345.92,197.06a14.44,14.44,0,0,1-4.13-.61c-4.89-1.49-8.68-5.5-10.67-11.3a31.63,31.63,0,0,1,.07-19.23c4.18-13.8,15.73-22.55,25.76-19.51s14.78,16.73,10.6,30.53h0a31.65,31.65,0,0,1-10.62,16A18.26,18.26,0,0,1,345.92,197.06Zm6.92-50.31c-8.48,0-17.24,7.9-20.74,19.44a30.68,30.68,0,0,0-.08,18.65c1.89,5.51,5.46,9.31,10,10.7s9.66.21,14.29-3.32a30.74,30.74,0,0,0,10.29-15.56c4-13.29-.44-26.45-10-29.34A13.28,13.28,0,0,0,352.84,146.75Z" style="fill:#fff"></path><path d="M355.88,150.42a.48.48,0,0,1-.34-.14.47.47,0,0,1-.13-.33.57.57,0,0,1,0-.18.78.78,0,0,1,.1-.15.44.44,0,0,1,.16-.1.48.48,0,0,1,.51.1.49.49,0,0,1,.1.15.57.57,0,0,1,0,.18.43.43,0,0,1-.13.33.72.72,0,0,1-.15.11A.57.57,0,0,1,355.88,150.42Z" style="fill:#fff"></path><path d="M364.41,173.36a.46.46,0,0,1-.36-.56h0a.47.47,0,0,1,.55-.36h0a.47.47,0,0,1,.37.56h0a.48.48,0,0,1-.47.37h-.09Zm.52-2.93a.47.47,0,0,1-.42-.52h0a.48.48,0,0,1,.52-.41h0a.47.47,0,0,1,.42.52h0a.48.48,0,0,1-.47.42h-.05Zm.24-3a.47.47,0,0,1-.47-.47h0a.47.47,0,0,1,.48-.46h0a.46.46,0,0,1,.46.48h0a.47.47,0,0,1-.47.46Zm-.58-3.39h0a.48.48,0,0,1,.42-.51h0a.47.47,0,0,1,.51.43h0a.46.46,0,0,1-.42.51h0A.47.47,0,0,1,364.59,164.08Zm-.44-2.88a.46.46,0,0,1,.36-.56h0a.46.46,0,0,1,.56.36h0a.47.47,0,0,1-.36.56h-.1A.47.47,0,0,1,364.15,161.2Zm-.8-2.79a.47.47,0,0,1,.27-.61h0a.48.48,0,0,1,.61.28h0a.47.47,0,0,1-.28.6h0a.45.45,0,0,1-.16,0h0A.45.45,0,0,1,363.35,158.41Zm-1.22-2.62h0a.47.47,0,0,1,.17-.65h0a.46.46,0,0,1,.64.18h0a.47.47,0,0,1-.17.64h0a.46.46,0,0,1-.23.06h0A.45.45,0,0,1,362.13,155.79Zm-1.68-2.33a.46.46,0,0,1,0-.66h0a.47.47,0,0,1,.67,0h0a.48.48,0,0,1,0,.67h0a.47.47,0,0,1-.31.12h0A.48.48,0,0,1,360.45,153.46Zm-2.15-1.86h0a.47.47,0,0,1-.14-.65h0a.46.46,0,0,1,.65-.13h0a.48.48,0,0,1,.13.65h0a.49.49,0,0,1-.4.21h0A.49.49,0,0,1,358.3,151.6Z" style="fill:#fff"></path><path d="M363.77,176.26a.44.44,0,0,1-.33-.13.57.57,0,0,1-.11-.16.48.48,0,0,1,0-.18.57.57,0,0,1,0-.18.53.53,0,0,1,.11-.15.4.4,0,0,1,.15-.1.48.48,0,0,1,.51.1.47.47,0,0,1,.14.33.48.48,0,0,1-.14.34.4.4,0,0,1-.15.1A.57.57,0,0,1,363.77,176.26Z" style="fill:#fff"></path><path d="M343.7,319.49c-1.55-17.71-18.08-29.33-25.39-30.86,1.41-24.3,9.05-73.64,18.6-84.76,5.47,5.74,27.82-3.18,33.17-13s30.62-5.35,27.85,9.6S375.71,242,372.57,293.67c9.41,7.65,13.07,15.18,12.05,26.62C383.67,328.66,359.38,334.8,343.7,319.49Z" style="fill:#263238"></path><path d="M339.73,300.58a.55.55,0,0,1-.29-1c10.77-6.59,27-6.81,30.75-6.5a.55.55,0,1,1-.09,1.1c-3.68-.3-19.57-.09-30.08,6.34A.51.51,0,0,1,339.73,300.58Z" style="fill:#fff;opacity:0.1"></path><path d="M375,329l-.22,0a1.12,1.12,0,0,1-.87-1.31c2.45-11.94-2.4-25.24-12.07-33.12a1.08,1.08,0,0,1-.41-.92c1.8-29.62,9.66-50,16.6-67.94,5.22-13.53,9.73-25.21,10.76-38.34a1.1,1.1,0,1,1,2.2.17c-1.05,13.45-5.61,25.28-10.9,39-6.83,17.7-14.57,37.75-16.42,66.72,10,8.42,15,22.38,12.41,34.91A1.11,1.11,0,0,1,375,329Z"></path><path d="M188.15,191c-2.26,0-5.09-1.72-7.17-4.59-2.8-3.85-3.21-8.34-.92-10,1.14-.83,2.74-.85,4.5-.08a12.26,12.26,0,0,1,4.74,4c2.79,3.85,3.2,8.33.91,10A3.4,3.4,0,0,1,188.15,191Zm-6-14.67a2.89,2.89,0,0,0-1.76.53c-2,1.48-1.58,5.62,1,9.22s6.41,5.32,8.45,3.84,1.58-5.62-1-9.23a11.56,11.56,0,0,0-4.51-3.84A5.39,5.39,0,0,0,182.15,176.31Z" style="fill:#fff"></path></g></svg>