<?xml version="1.0" encoding="UTF-8" standalone="no"?><svg xmlns="http://www.w3.org/2000/svg" xmlns:xlink="http://www.w3.org/1999/xlink" contentScriptType="application/ecmascript" contentStyleType="text/css" height="689px" preserveAspectRatio="none" style="width:1188px;height:689px;background:#FFFFFF;" version="1.1" viewBox="0 0 1188 689" width="1188px" zoomAndPan="magnify"><defs><filter height="300%" id="frwcewc492zla" width="300%" x="-1" y="-1"><feGaussianBlur result="blurOut" stdDeviation="2.0"/><feColorMatrix in="blurOut" result="blurOut2" type="matrix" values="0 0 0 0 0 0 0 0 0 0 0 0 0 0 0 0 0 0 .4 0"/><feOffset dx="4.0" dy="4.0" in="blurOut2" result="blurOut3"/><feBlend in="SourceGraphic" in2="blurOut3" mode="normal"/></filter></defs><g><rect fill="#DDDDDD" height="677.5859" style="stroke:#A80036;stroke-width:1.0;" width="573.5" x="117.5" y="6"/><text fill="#000000" font-family="sans-serif" font-size="13" font-weight="bold" lengthAdjust="spacing" textLength="62" x="373.25" y="18.0669">chat bot</text><line style="stroke:#A80036;stroke-width:1.0;stroke-dasharray:5.0,5.0;" x1="23" x2="23" y1="88.2969" y2="597.2891"/><line style="stroke:#A80036;stroke-width:1.0;stroke-dasharray:5.0,5.0;" x1="153.5" x2="153.5" y1="88.2969" y2="597.2891"/><line style="stroke:#A80036;stroke-width:1.0;stroke-dasharray:5.0,5.0;" x1="349.5" x2="349.5" y1="88.2969" y2="597.2891"/><line style="stroke:#A80036;stroke-width:1.0;stroke-dasharray:5.0,5.0;" x1="654" x2="654" y1="88.2969" y2="597.2891"/><line style="stroke:#A80036;stroke-width:1.0;stroke-dasharray:5.0,5.0;" x1="788.5" x2="788.5" y1="88.2969" y2="597.2891"/><text fill="#000000" font-family="sans-serif" font-size="14" lengthAdjust="spacing" textLength="31" x="5" y="84.9951">user</text><ellipse cx="23.5" cy="15" fill="#FEFECE" filter="url(#frwcewc492zla)" rx="8" ry="8" style="stroke:#A80036;stroke-width:2.0;"/><path d="M23.5,23 L23.5,50 M10.5,31 L36.5,31 M23.5,50 L10.5,65 M23.5,50 L36.5,65 " fill="none" filter="url(#frwcewc492zla)" style="stroke:#A80036;stroke-width:2.0;"/><text fill="#000000" font-family="sans-serif" font-size="14" lengthAdjust="spacing" textLength="31" x="5" y="609.2842">user</text><ellipse cx="23.5" cy="622.5859" fill="#FEFECE" filter="url(#frwcewc492zla)" rx="8" ry="8" style="stroke:#A80036;stroke-width:2.0;"/><path d="M23.5,630.5859 L23.5,657.5859 M10.5,638.5859 L36.5,638.5859 M23.5,657.5859 L10.5,672.5859 M23.5,657.5859 L36.5,672.5859 " fill="none" filter="url(#frwcewc492zla)" style="stroke:#A80036;stroke-width:2.0;"/><rect fill="#FEFECE" filter="url(#frwcewc492zla)" height="30.2969" style="stroke:#A80036;stroke-width:1.5;" width="60" x="121.5" y="53"/><text fill="#000000" font-family="sans-serif" font-size="14" lengthAdjust="spacing" textLength="46" x="128.5" y="72.9951">button</text><rect fill="#FEFECE" filter="url(#frwcewc492zla)" height="30.2969" style="stroke:#A80036;stroke-width:1.5;" width="60" x="121.5" y="596.2891"/><text fill="#000000" font-family="sans-serif" font-size="14" lengthAdjust="spacing" textLength="46" x="128.5" y="616.2842">button</text><rect fill="#FEFECE" filter="url(#frwcewc492zla)" height="30.2969" style="stroke:#A80036;stroke-width:1.5;" width="70" x="312.5" y="53"/><text fill="#000000" font-family="sans-serif" font-size="14" lengthAdjust="spacing" textLength="56" x="319.5" y="72.9951">ai_audio</text><rect fill="#FEFECE" filter="url(#frwcewc492zla)" height="30.2969" style="stroke:#A80036;stroke-width:1.5;" width="70" x="312.5" y="596.2891"/><text fill="#000000" font-family="sans-serif" font-size="14" lengthAdjust="spacing" textLength="56" x="319.5" y="616.2842">ai_audio</text><rect fill="#FEFECE" filter="url(#frwcewc492zla)" height="30.2969" style="stroke:#A80036;stroke-width:1.5;" width="61" x="622" y="53"/><text fill="#000000" font-family="sans-serif" font-size="14" lengthAdjust="spacing" textLength="47" x="629" y="72.9951">display</text><rect fill="#FEFECE" filter="url(#frwcewc492zla)" height="30.2969" style="stroke:#A80036;stroke-width:1.5;" width="61" x="622" y="596.2891"/><text fill="#000000" font-family="sans-serif" font-size="14" lengthAdjust="spacing" textLength="47" x="629" y="616.2842">display</text><rect fill="#FEFECE" filter="url(#frwcewc492zla)" height="30.2969" style="stroke:#A80036;stroke-width:1.5;" width="52" x="760.5" y="53"/><text fill="#000000" font-family="sans-serif" font-size="14" lengthAdjust="spacing" textLength="38" x="767.5" y="72.9951">cloud</text><rect fill="#FEFECE" filter="url(#frwcewc492zla)" height="30.2969" style="stroke:#A80036;stroke-width:1.5;" width="52" x="760.5" y="596.2891"/><text fill="#000000" font-family="sans-serif" font-size="14" lengthAdjust="spacing" textLength="38" x="767.5" y="616.2842">cloud</text><polygon fill="#A80036" points="141.5,115.4297,151.5,119.4297,141.5,123.4297,145.5,119.4297" style="stroke:#A80036;stroke-width:1.0;"/><line style="stroke:#A80036;stroke-width:1.0;" x1="23.5" x2="147.5" y1="119.4297" y2="119.4297"/><text fill="#000000" font-family="sans-serif" font-size="13" lengthAdjust="spacing" textLength="106" x="30.5" y="114.3638">Press the button</text><line style="stroke:#A80036;stroke-width:1.0;" x1="153.5" x2="195.5" y1="148.5625" y2="148.5625"/><line style="stroke:#A80036;stroke-width:1.0;" x1="195.5" x2="195.5" y1="148.5625" y2="161.5625"/><line style="stroke:#A80036;stroke-width:1.0;" x1="154.5" x2="195.5" y1="161.5625" y2="161.5625"/><polygon fill="#A80036" points="164.5,157.5625,154.5,161.5625,164.5,165.5625,160.5,161.5625" style="stroke:#A80036;stroke-width:1.0;"/><text fill="#000000" font-family="sans-serif" font-size="13" lengthAdjust="spacing" textLength="119" x="160.5" y="143.4966">Detect short press</text><polygon fill="#A80036" points="337.5,186.6953,347.5,190.6953,337.5,194.6953,341.5,190.6953" style="stroke:#A80036;stroke-width:1.0;"/><line style="stroke:#A80036;stroke-width:1.0;" x1="153.5" x2="343.5" y1="190.6953" y2="190.6953"/><text fill="#000000" font-family="sans-serif" font-size="13" lengthAdjust="spacing" textLength="172" x="160.5" y="185.6294">Enter voice detection state</text><polygon fill="#A80036" points="642.5,215.8281,652.5,219.8281,642.5,223.8281,646.5,219.8281" style="stroke:#A80036;stroke-width:1.0;"/><line style="stroke:#A80036;stroke-width:1.0;" x1="349.5" x2="648.5" y1="219.8281" y2="219.8281"/><text fill="#000000" font-family="sans-serif" font-size="13" lengthAdjust="spacing" textLength="105" x="356.5" y="214.7622">Show "Listening"</text><polygon fill="#A80036" points="337.5,244.9609,347.5,248.9609,337.5,252.9609,341.5,248.9609" style="stroke:#A80036;stroke-width:1.0;"/><line style="stroke:#A80036;stroke-width:1.0;" x1="23.5" x2="343.5" y1="248.9609" y2="248.9609"/><text fill="#000000" font-family="sans-serif" font-size="13" lengthAdjust="spacing" textLength="71" x="30.5" y="243.895">Voice input</text><line style="stroke:#A80036;stroke-width:1.0;" x1="349.5" x2="391.5" y1="278.0938" y2="278.0938"/><line style="stroke:#A80036;stroke-width:1.0;" x1="391.5" x2="391.5" y1="278.0938" y2="291.0938"/><line style="stroke:#A80036;stroke-width:1.0;" x1="350.5" x2="391.5" y1="291.0938" y2="291.0938"/><polygon fill="#A80036" points="360.5,287.0938,350.5,291.0938,360.5,295.0938,356.5,291.0938" style="stroke:#A80036;stroke-width:1.0;"/><text fill="#000000" font-family="sans-serif" font-size="13" lengthAdjust="spacing" textLength="129" x="356.5" y="273.0278">Detect human voice</text><polygon fill="#A80036" points="776.5,316.2266,786.5,320.2266,776.5,324.2266,780.5,320.2266" style="stroke:#A80036;stroke-width:1.0;"/><line style="stroke:#A80036;stroke-width:1.0;" x1="349.5" x2="782.5" y1="320.2266" y2="320.2266"/><text fill="#000000" font-family="sans-serif" font-size="13" lengthAdjust="spacing" textLength="195" x="356.5" y="315.1606">Upload voice data to the cloud</text><polygon fill="#A80036" points="337.5,345.3594,347.5,349.3594,337.5,353.3594,341.5,349.3594" style="stroke:#A80036;stroke-width:1.0;"/><line style="stroke:#A80036;stroke-width:1.0;" x1="23.5" x2="343.5" y1="349.3594" y2="349.3594"/><text fill="#000000" font-family="sans-serif" font-size="13" lengthAdjust="spacing" textLength="97" x="30.5" y="344.2935">End voice input</text><polygon fill="#A80036" points="776.5,374.4922,786.5,378.4922,776.5,382.4922,780.5,378.4922" style="stroke:#A80036;stroke-width:1.0;"/><line style="stroke:#A80036;stroke-width:1.0;" x1="349.5" x2="782.5" y1="378.4922" y2="378.4922"/><text fill="#000000" font-family="sans-serif" font-size="13" lengthAdjust="spacing" textLength="364" x="356.5" y="373.4263">End upload and notify cloud that data upload is complete</text><polygon fill="#A80036" points="360.5,403.625,350.5,407.625,360.5,411.625,356.5,407.625" style="stroke:#A80036;stroke-width:1.0;"/><line style="stroke:#A80036;stroke-width:1.0;" x1="354.5" x2="787.5" y1="407.625" y2="407.625"/><text fill="#000000" font-family="sans-serif" font-size="13" lengthAdjust="spacing" textLength="233" x="366.5" y="402.5591">Convert voice to text and send down</text><line style="stroke:#A80036;stroke-width:1.0;" x1="788.5" x2="830.5" y1="436.7578" y2="436.7578"/><line style="stroke:#A80036;stroke-width:1.0;" x1="830.5" x2="830.5" y1="436.7578" y2="449.7578"/><line style="stroke:#A80036;stroke-width:1.0;" x1="789.5" x2="830.5" y1="449.7578" y2="449.7578"/><polygon fill="#A80036" points="799.5,445.7578,789.5,449.7578,799.5,453.7578,795.5,449.7578" style="stroke:#A80036;stroke-width:1.0;"/><text fill="#000000" font-family="sans-serif" font-size="13" lengthAdjust="spacing" textLength="386" x="795.5" y="431.6919">Use large model to generate answer based on voice content</text><polygon fill="#A80036" points="642.5,474.8906,652.5,478.8906,642.5,482.8906,646.5,478.8906" style="stroke:#A80036;stroke-width:1.0;"/><line style="stroke:#A80036;stroke-width:1.0;" x1="349.5" x2="648.5" y1="478.8906" y2="478.8906"/><text fill="#000000" font-family="sans-serif" font-size="13" lengthAdjust="spacing" textLength="244" x="356.5" y="473.8247">Display text information on the screen</text><polygon fill="#A80036" points="360.5,504.0234,350.5,508.0234,360.5,512.0234,356.5,508.0234" style="stroke:#A80036;stroke-width:1.0;"/><line style="stroke:#A80036;stroke-width:1.0;" x1="354.5" x2="787.5" y1="508.0234" y2="508.0234"/><text fill="#000000" font-family="sans-serif" font-size="13" lengthAdjust="spacing" textLength="415" x="366.5" y="502.9575">Send AI-generated content (text, voice, emoji, etc.) to the device</text><line style="stroke:#A80036;stroke-width:1.0;" x1="349.5" x2="391.5" y1="537.1563" y2="537.1563"/><line style="stroke:#A80036;stroke-width:1.0;" x1="391.5" x2="391.5" y1="537.1563" y2="550.1563"/><line style="stroke:#A80036;stroke-width:1.0;" x1="350.5" x2="391.5" y1="550.1563" y2="550.1563"/><polygon fill="#A80036" points="360.5,546.1563,350.5,550.1563,360.5,554.1563,356.5,550.1563" style="stroke:#A80036;stroke-width:1.0;"/><text fill="#000000" font-family="sans-serif" font-size="13" lengthAdjust="spacing" textLength="63" x="356.5" y="532.0903">Play voice</text><polygon fill="#A80036" points="642.5,575.2891,652.5,579.2891,642.5,583.2891,646.5,579.2891" style="stroke:#A80036;stroke-width:1.0;"/><line style="stroke:#A80036;stroke-width:1.0;" x1="349.5" x2="648.5" y1="579.2891" y2="579.2891"/><text fill="#000000" font-family="sans-serif" font-size="13" lengthAdjust="spacing" textLength="281" x="356.5" y="574.2231">Display AI text, emoji, and other information</text><!--MD5=[fa106eef55edb974046291a12e9e2187]
@startuml
actor user
box "chat bot"
participant button
participant ai_audio
participant display
end box
user -> button: Press the button
button -> button: Detect short press
button -> ai_audio: Enter voice detection state
ai_audio->display: Show "Listening"
user -> ai_audio: Voice input
ai_audio -> ai_audio: Detect human voice
ai_audio -> cloud: Upload voice data to the cloud
user -> ai_audio: End voice input
ai_audio  -> cloud: End upload and notify cloud that data upload is complete
cloud -> ai_audio: Convert voice to text and send down
cloud -> cloud: Use large model to generate answer based on voice content
ai_audio -> display: Display text information on the screen
cloud -> ai_audio: Send AI-generated content (text, voice, emoji, etc.) to the device
ai_audio->ai_audio: Play voice
ai_audio->display: Display AI text, emoji, and other information
@enduml

PlantUML version 1.2021.16(Wed Dec 08 17:25:22 UTC 2021)
(GPL source distribution)
Java Runtime: OpenJDK Runtime Environment
JVM: OpenJDK 64-Bit Server VM
Default Encoding: UTF-8
Language: en
Country: null
--></g></svg>