<?xml version="1.0" encoding="UTF-8" standalone="no"?><svg xmlns="http://www.w3.org/2000/svg" xmlns:xlink="http://www.w3.org/1999/xlink" contentScriptType="application/ecmascript" contentStyleType="text/css" height="718px" preserveAspectRatio="none" style="width:1169px;height:718px;background:#FFFFFF;" version="1.1" viewBox="0 0 1169 718" width="1169px" zoomAndPan="magnify"><defs><filter height="300%" id="fmlj0kb3bfrfb" width="300%" x="-1" y="-1"><feGaussianBlur result="blurOut" stdDeviation="2.0"/><feColorMatrix in="blurOut" result="blurOut2" type="matrix" values="0 0 0 0 0 0 0 0 0 0 0 0 0 0 0 0 0 0 .4 0"/><feOffset dx="4.0" dy="4.0" in="blurOut2" result="blurOut3"/><feBlend in="SourceGraphic" in2="blurOut3" mode="normal"/></filter></defs><g><rect fill="#DDDDDD" height="706.7188" style="stroke:#A80036;stroke-width:1.0;" width="539.5" x="132.5" y="6"/><text fill="#000000" font-family="sans-serif" font-size="13" font-weight="bold" lengthAdjust="spacing" textLength="62" x="371.25" y="18.0669">chat bot</text><line style="stroke:#A80036;stroke-width:1.0;stroke-dasharray:5.0,5.0;" x1="23" x2="23" y1="88.2969" y2="626.4219"/><line style="stroke:#A80036;stroke-width:1.0;stroke-dasharray:5.0,5.0;" x1="168.5" x2="168.5" y1="88.2969" y2="626.4219"/><line style="stroke:#A80036;stroke-width:1.0;stroke-dasharray:5.0,5.0;" x1="330.5" x2="330.5" y1="88.2969" y2="626.4219"/><line style="stroke:#A80036;stroke-width:1.0;stroke-dasharray:5.0,5.0;" x1="635" x2="635" y1="88.2969" y2="626.4219"/><line style="stroke:#A80036;stroke-width:1.0;stroke-dasharray:5.0,5.0;" x1="769.5" x2="769.5" y1="88.2969" y2="626.4219"/><text fill="#000000" font-family="sans-serif" font-size="14" lengthAdjust="spacing" textLength="31" x="5" y="84.9951">user</text><ellipse cx="23.5" cy="15" fill="#FEFECE" filter="url(#fmlj0kb3bfrfb)" rx="8" ry="8" style="stroke:#A80036;stroke-width:2.0;"/><path d="M23.5,23 L23.5,50 M10.5,31 L36.5,31 M23.5,50 L10.5,65 M23.5,50 L36.5,65 " fill="none" filter="url(#fmlj0kb3bfrfb)" style="stroke:#A80036;stroke-width:2.0;"/><text fill="#000000" font-family="sans-serif" font-size="14" lengthAdjust="spacing" textLength="31" x="5" y="638.417">user</text><ellipse cx="23.5" cy="651.7188" fill="#FEFECE" filter="url(#fmlj0kb3bfrfb)" rx="8" ry="8" style="stroke:#A80036;stroke-width:2.0;"/><path d="M23.5,659.7188 L23.5,686.7188 M10.5,667.7188 L36.5,667.7188 M23.5,686.7188 L10.5,701.7188 M23.5,686.7188 L36.5,701.7188 " fill="none" filter="url(#fmlj0kb3bfrfb)" style="stroke:#A80036;stroke-width:2.0;"/><rect fill="#FEFECE" filter="url(#fmlj0kb3bfrfb)" height="30.2969" style="stroke:#A80036;stroke-width:1.5;" width="60" x="136.5" y="53"/><text fill="#000000" font-family="sans-serif" font-size="14" lengthAdjust="spacing" textLength="46" x="143.5" y="72.9951">button</text><rect fill="#FEFECE" filter="url(#fmlj0kb3bfrfb)" height="30.2969" style="stroke:#A80036;stroke-width:1.5;" width="60" x="136.5" y="625.4219"/><text fill="#000000" font-family="sans-serif" font-size="14" lengthAdjust="spacing" textLength="46" x="143.5" y="645.417">button</text><rect fill="#FEFECE" filter="url(#fmlj0kb3bfrfb)" height="30.2969" style="stroke:#A80036;stroke-width:1.5;" width="70" x="293.5" y="53"/><text fill="#000000" font-family="sans-serif" font-size="14" lengthAdjust="spacing" textLength="56" x="300.5" y="72.9951">ai_audio</text><rect fill="#FEFECE" filter="url(#fmlj0kb3bfrfb)" height="30.2969" style="stroke:#A80036;stroke-width:1.5;" width="70" x="293.5" y="625.4219"/><text fill="#000000" font-family="sans-serif" font-size="14" lengthAdjust="spacing" textLength="56" x="300.5" y="645.417">ai_audio</text><rect fill="#FEFECE" filter="url(#fmlj0kb3bfrfb)" height="30.2969" style="stroke:#A80036;stroke-width:1.5;" width="61" x="603" y="53"/><text fill="#000000" font-family="sans-serif" font-size="14" lengthAdjust="spacing" textLength="47" x="610" y="72.9951">display</text><rect fill="#FEFECE" filter="url(#fmlj0kb3bfrfb)" height="30.2969" style="stroke:#A80036;stroke-width:1.5;" width="61" x="603" y="625.4219"/><text fill="#000000" font-family="sans-serif" font-size="14" lengthAdjust="spacing" textLength="47" x="610" y="645.417">display</text><rect fill="#FEFECE" filter="url(#fmlj0kb3bfrfb)" height="30.2969" style="stroke:#A80036;stroke-width:1.5;" width="52" x="741.5" y="53"/><text fill="#000000" font-family="sans-serif" font-size="14" lengthAdjust="spacing" textLength="38" x="748.5" y="72.9951">cloud</text><rect fill="#FEFECE" filter="url(#fmlj0kb3bfrfb)" height="30.2969" style="stroke:#A80036;stroke-width:1.5;" width="52" x="741.5" y="625.4219"/><text fill="#000000" font-family="sans-serif" font-size="14" lengthAdjust="spacing" textLength="38" x="748.5" y="645.417">cloud</text><polygon fill="#A80036" points="156.5,115.4297,166.5,119.4297,156.5,123.4297,160.5,119.4297" style="stroke:#A80036;stroke-width:1.0;"/><line style="stroke:#A80036;stroke-width:1.0;" x1="23.5" x2="162.5" y1="119.4297" y2="119.4297"/><text fill="#000000" font-family="sans-serif" font-size="13" lengthAdjust="spacing" textLength="106" x="30.5" y="114.3638">Press the button</text><line style="stroke:#A80036;stroke-width:1.0;" x1="168.5" x2="210.5" y1="148.5625" y2="148.5625"/><line style="stroke:#A80036;stroke-width:1.0;" x1="210.5" x2="210.5" y1="148.5625" y2="161.5625"/><line style="stroke:#A80036;stroke-width:1.0;" x1="169.5" x2="210.5" y1="161.5625" y2="161.5625"/><polygon fill="#A80036" points="179.5,157.5625,169.5,161.5625,179.5,165.5625,175.5,161.5625" style="stroke:#A80036;stroke-width:1.0;"/><text fill="#000000" font-family="sans-serif" font-size="13" lengthAdjust="spacing" textLength="144" x="175.5" y="143.4966">Detect button pressed</text><polygon fill="#A80036" points="318.5,186.6953,328.5,190.6953,318.5,194.6953,322.5,190.6953" style="stroke:#A80036;stroke-width:1.0;"/><line style="stroke:#A80036;stroke-width:1.0;" x1="168.5" x2="324.5" y1="190.6953" y2="190.6953"/><text fill="#000000" font-family="sans-serif" font-size="13" lengthAdjust="spacing" textLength="137" x="175.5" y="185.6294">Trigger single session</text><polygon fill="#A80036" points="623.5,215.8281,633.5,219.8281,623.5,223.8281,627.5,219.8281" style="stroke:#A80036;stroke-width:1.0;"/><line style="stroke:#A80036;stroke-width:1.0;" x1="330.5" x2="629.5" y1="219.8281" y2="219.8281"/><text fill="#000000" font-family="sans-serif" font-size="13" lengthAdjust="spacing" textLength="105" x="337.5" y="214.7622">Show "Listening"</text><polygon fill="#A80036" points="318.5,244.9609,328.5,248.9609,318.5,252.9609,322.5,248.9609" style="stroke:#A80036;stroke-width:1.0;"/><line style="stroke:#A80036;stroke-width:1.0;" x1="23.5" x2="324.5" y1="248.9609" y2="248.9609"/><text fill="#000000" font-family="sans-serif" font-size="13" lengthAdjust="spacing" textLength="71" x="30.5" y="243.895">Voice input</text><polygon fill="#A80036" points="757.5,274.0938,767.5,278.0938,757.5,282.0938,761.5,278.0938" style="stroke:#A80036;stroke-width:1.0;"/><line style="stroke:#A80036;stroke-width:1.0;" x1="330.5" x2="763.5" y1="278.0938" y2="278.0938"/><text fill="#000000" font-family="sans-serif" font-size="13" lengthAdjust="spacing" textLength="195" x="337.5" y="273.0278">Upload voice data to the cloud</text><polygon fill="#A80036" points="156.5,303.2266,166.5,307.2266,156.5,311.2266,160.5,307.2266" style="stroke:#A80036;stroke-width:1.0;"/><line style="stroke:#A80036;stroke-width:1.0;" x1="23.5" x2="162.5" y1="307.2266" y2="307.2266"/><text fill="#000000" font-family="sans-serif" font-size="13" lengthAdjust="spacing" textLength="121" x="30.5" y="302.1606">Release the button</text><line style="stroke:#A80036;stroke-width:1.0;" x1="168.5" x2="210.5" y1="336.3594" y2="336.3594"/><line style="stroke:#A80036;stroke-width:1.0;" x1="210.5" x2="210.5" y1="336.3594" y2="349.3594"/><line style="stroke:#A80036;stroke-width:1.0;" x1="169.5" x2="210.5" y1="349.3594" y2="349.3594"/><polygon fill="#A80036" points="179.5,345.3594,169.5,349.3594,179.5,353.3594,175.5,349.3594" style="stroke:#A80036;stroke-width:1.0;"/><text fill="#000000" font-family="sans-serif" font-size="13" lengthAdjust="spacing" textLength="148" x="175.5" y="331.2935">Detect button released</text><polygon fill="#A80036" points="318.5,374.4922,328.5,378.4922,318.5,382.4922,322.5,378.4922" style="stroke:#A80036;stroke-width:1.0;"/><line style="stroke:#A80036;stroke-width:1.0;" x1="168.5" x2="324.5" y1="378.4922" y2="378.4922"/><text fill="#000000" font-family="sans-serif" font-size="13" lengthAdjust="spacing" textLength="97" x="175.5" y="373.4263">End voice input</text><polygon fill="#A80036" points="757.5,403.625,767.5,407.625,757.5,411.625,761.5,407.625" style="stroke:#A80036;stroke-width:1.0;"/><line style="stroke:#A80036;stroke-width:1.0;" x1="330.5" x2="763.5" y1="407.625" y2="407.625"/><text fill="#000000" font-family="sans-serif" font-size="13" lengthAdjust="spacing" textLength="364" x="337.5" y="402.5591">End upload and notify cloud that data upload is complete</text><polygon fill="#A80036" points="341.5,432.7578,331.5,436.7578,341.5,440.7578,337.5,436.7578" style="stroke:#A80036;stroke-width:1.0;"/><line style="stroke:#A80036;stroke-width:1.0;" x1="335.5" x2="768.5" y1="436.7578" y2="436.7578"/><text fill="#000000" font-family="sans-serif" font-size="13" lengthAdjust="spacing" textLength="233" x="347.5" y="431.6919">Convert voice to text and send down</text><line style="stroke:#A80036;stroke-width:1.0;" x1="769.5" x2="811.5" y1="465.8906" y2="465.8906"/><line style="stroke:#A80036;stroke-width:1.0;" x1="811.5" x2="811.5" y1="465.8906" y2="478.8906"/><line style="stroke:#A80036;stroke-width:1.0;" x1="770.5" x2="811.5" y1="478.8906" y2="478.8906"/><polygon fill="#A80036" points="780.5,474.8906,770.5,478.8906,780.5,482.8906,776.5,478.8906" style="stroke:#A80036;stroke-width:1.0;"/><text fill="#000000" font-family="sans-serif" font-size="13" lengthAdjust="spacing" textLength="386" x="776.5" y="460.8247">Use large model to generate answer based on voice content</text><polygon fill="#A80036" points="623.5,504.0234,633.5,508.0234,623.5,512.0234,627.5,508.0234" style="stroke:#A80036;stroke-width:1.0;"/><line style="stroke:#A80036;stroke-width:1.0;" x1="330.5" x2="629.5" y1="508.0234" y2="508.0234"/><text fill="#000000" font-family="sans-serif" font-size="13" lengthAdjust="spacing" textLength="244" x="337.5" y="502.9575">Display text information on the screen</text><polygon fill="#A80036" points="341.5,533.1563,331.5,537.1563,341.5,541.1563,337.5,537.1563" style="stroke:#A80036;stroke-width:1.0;"/><line style="stroke:#A80036;stroke-width:1.0;" x1="335.5" x2="768.5" y1="537.1563" y2="537.1563"/><text fill="#000000" font-family="sans-serif" font-size="13" lengthAdjust="spacing" textLength="415" x="347.5" y="532.0903">Send AI-generated content (text, voice, emoji, etc.) to the device</text><line style="stroke:#A80036;stroke-width:1.0;" x1="330.5" x2="372.5" y1="566.2891" y2="566.2891"/><line style="stroke:#A80036;stroke-width:1.0;" x1="372.5" x2="372.5" y1="566.2891" y2="579.2891"/><line style="stroke:#A80036;stroke-width:1.0;" x1="331.5" x2="372.5" y1="579.2891" y2="579.2891"/><polygon fill="#A80036" points="341.5,575.2891,331.5,579.2891,341.5,583.2891,337.5,579.2891" style="stroke:#A80036;stroke-width:1.0;"/><text fill="#000000" font-family="sans-serif" font-size="13" lengthAdjust="spacing" textLength="63" x="337.5" y="561.2231">Play voice</text><polygon fill="#A80036" points="623.5,604.4219,633.5,608.4219,623.5,612.4219,627.5,608.4219" style="stroke:#A80036;stroke-width:1.0;"/><line style="stroke:#A80036;stroke-width:1.0;" x1="330.5" x2="629.5" y1="608.4219" y2="608.4219"/><text fill="#000000" font-family="sans-serif" font-size="13" lengthAdjust="spacing" textLength="281" x="337.5" y="603.356">Display AI text, emoji, and other information</text><!--MD5=[fce7422aadfd0da2d0e935f2c899c7bb]
@startuml
actor user
box "chat bot"
participant button
participant ai_audio
participant display
end box
user -> button: Press the button
button -> button: Detect button pressed
button -> ai_audio: Trigger single session
ai_audio->display: Show "Listening"
user -> ai_audio: Voice input
ai_audio -> cloud: Upload voice data to the cloud
user -> button: Release the button
button -> button: Detect button released
button->ai_audio: End voice input
ai_audio  -> cloud: End upload and notify cloud that data upload is complete
cloud -> ai_audio: Convert voice to text and send down
cloud -> cloud: Use large model to generate answer based on voice content
ai_audio -> display: Display text information on the screen
cloud -> ai_audio: Send AI-generated content (text, voice, emoji, etc.) to the device
ai_audio->ai_audio: Play voice
ai_audio->display: Display AI text, emoji, and other information
@enduml

PlantUML version 1.2021.16(Wed Dec 08 17:25:22 UTC 2021)
(GPL source distribution)
Java Runtime: OpenJDK Runtime Environment
JVM: OpenJDK 64-Bit Server VM
Default Encoding: UTF-8
Language: en
Country: null
--></g></svg>