<?xml version="1.0" encoding="UTF-8" standalone="no"?><svg xmlns="http://www.w3.org/2000/svg" xmlns:xlink="http://www.w3.org/1999/xlink" contentScriptType="application/ecmascript" contentStyleType="text/css" height="673px" preserveAspectRatio="none" style="width:1043px;height:673px;background:#FFFFFF;" version="1.1" viewBox="0 0 1043 673" width="1043px" zoomAndPan="magnify"><defs><filter height="300%" id="f1r0rrchsl1e99" width="300%" x="-1" y="-1"><feGaussianBlur result="blurOut" stdDeviation="2.0"/><feColorMatrix in="blurOut" result="blurOut2" type="matrix" values="0 0 0 0 0 0 0 0 0 0 0 0 0 0 0 0 0 0 .4 0"/><feOffset dx="4.0" dy="4.0" in="blurOut2" result="blurOut3"/><feBlend in="SourceGraphic" in2="blurOut3" mode="normal"/></filter></defs><g><rect fill="#DDDDDD" height="661.4531" style="stroke:#A80036;stroke-width:1.0;" width="483.5" x="125.5" y="6"/><text fill="#000000" font-family="sans-serif" font-size="13" font-weight="bold" lengthAdjust="spacing" textLength="62" x="336.25" y="18.0669">chat bot</text><line style="stroke:#A80036;stroke-width:1.0;stroke-dasharray:5.0,5.0;" x1="23" x2="23" y1="88.2969" y2="581.1563"/><line style="stroke:#A80036;stroke-width:1.0;stroke-dasharray:5.0,5.0;" x1="166.5" x2="166.5" y1="88.2969" y2="581.1563"/><line style="stroke:#A80036;stroke-width:1.0;stroke-dasharray:5.0,5.0;" x1="572" x2="572" y1="88.2969" y2="581.1563"/><line style="stroke:#A80036;stroke-width:1.0;stroke-dasharray:5.0,5.0;" x1="643" x2="643" y1="88.2969" y2="581.1563"/><text fill="#000000" font-family="sans-serif" font-size="14" lengthAdjust="spacing" textLength="31" x="5" y="84.9951">user</text><ellipse cx="23.5" cy="15" fill="#FEFECE" filter="url(#f1r0rrchsl1e99)" rx="8" ry="8" style="stroke:#A80036;stroke-width:2.0;"/><path d="M23.5,23 L23.5,50 M10.5,31 L36.5,31 M23.5,50 L10.5,65 M23.5,50 L36.5,65 " fill="none" filter="url(#f1r0rrchsl1e99)" style="stroke:#A80036;stroke-width:2.0;"/><text fill="#000000" font-family="sans-serif" font-size="14" lengthAdjust="spacing" textLength="31" x="5" y="593.1514">user</text><ellipse cx="23.5" cy="606.4531" fill="#FEFECE" filter="url(#f1r0rrchsl1e99)" rx="8" ry="8" style="stroke:#A80036;stroke-width:2.0;"/><path d="M23.5,614.4531 L23.5,641.4531 M10.5,622.4531 L36.5,622.4531 M23.5,641.4531 L10.5,656.4531 M23.5,641.4531 L36.5,656.4531 " fill="none" filter="url(#f1r0rrchsl1e99)" style="stroke:#A80036;stroke-width:2.0;"/><rect fill="#FEFECE" filter="url(#f1r0rrchsl1e99)" height="30.2969" style="stroke:#A80036;stroke-width:1.5;" width="70" x="129.5" y="53"/><text fill="#000000" font-family="sans-serif" font-size="14" lengthAdjust="spacing" textLength="56" x="136.5" y="72.9951">ai_audio</text><rect fill="#FEFECE" filter="url(#f1r0rrchsl1e99)" height="30.2969" style="stroke:#A80036;stroke-width:1.5;" width="70" x="129.5" y="580.1563"/><text fill="#000000" font-family="sans-serif" font-size="14" lengthAdjust="spacing" textLength="56" x="136.5" y="600.1514">ai_audio</text><rect fill="#FEFECE" filter="url(#f1r0rrchsl1e99)" height="30.2969" style="stroke:#A80036;stroke-width:1.5;" width="61" x="540" y="53"/><text fill="#000000" font-family="sans-serif" font-size="14" lengthAdjust="spacing" textLength="47" x="547" y="72.9951">display</text><rect fill="#FEFECE" filter="url(#f1r0rrchsl1e99)" height="30.2969" style="stroke:#A80036;stroke-width:1.5;" width="61" x="540" y="580.1563"/><text fill="#000000" font-family="sans-serif" font-size="14" lengthAdjust="spacing" textLength="47" x="547" y="600.1514">display</text><rect fill="#FEFECE" filter="url(#f1r0rrchsl1e99)" height="30.2969" style="stroke:#A80036;stroke-width:1.5;" width="52" x="615" y="53"/><text fill="#000000" font-family="sans-serif" font-size="14" lengthAdjust="spacing" textLength="38" x="622" y="72.9951">cloud</text><rect fill="#FEFECE" filter="url(#f1r0rrchsl1e99)" height="30.2969" style="stroke:#A80036;stroke-width:1.5;" width="52" x="615" y="580.1563"/><text fill="#000000" font-family="sans-serif" font-size="14" lengthAdjust="spacing" textLength="38" x="622" y="600.1514">cloud</text><polygon fill="#A80036" points="154.5,115.4297,164.5,119.4297,154.5,123.4297,158.5,119.4297" style="stroke:#A80036;stroke-width:1.0;"/><line style="stroke:#A80036;stroke-width:1.0;" x1="23.5" x2="160.5" y1="119.4297" y2="119.4297"/><text fill="#000000" font-family="sans-serif" font-size="13" lengthAdjust="spacing" textLength="119" x="30.5" y="114.3638">Say the wake word</text><line style="stroke:#A80036;stroke-width:1.0;" x1="166.5" x2="208.5" y1="148.5625" y2="148.5625"/><line style="stroke:#A80036;stroke-width:1.0;" x1="208.5" x2="208.5" y1="148.5625" y2="161.5625"/><line style="stroke:#A80036;stroke-width:1.0;" x1="167.5" x2="208.5" y1="161.5625" y2="161.5625"/><polygon fill="#A80036" points="177.5,157.5625,167.5,161.5625,177.5,165.5625,173.5,161.5625" style="stroke:#A80036;stroke-width:1.0;"/><text fill="#000000" font-family="sans-serif" font-size="13" lengthAdjust="spacing" textLength="392" x="173.5" y="143.4966">Wake word detected, play prompt sound, detect human voice</text><polygon fill="#A80036" points="154.5,186.6953,164.5,190.6953,154.5,194.6953,158.5,190.6953" style="stroke:#A80036;stroke-width:1.0;"/><line style="stroke:#A80036;stroke-width:1.0;" x1="23.5" x2="160.5" y1="190.6953" y2="190.6953"/><text fill="#000000" font-family="sans-serif" font-size="13" lengthAdjust="spacing" textLength="71" x="30.5" y="185.6294">Voice input</text><line style="stroke:#A80036;stroke-width:1.0;" x1="166.5" x2="208.5" y1="219.8281" y2="219.8281"/><line style="stroke:#A80036;stroke-width:1.0;" x1="208.5" x2="208.5" y1="219.8281" y2="232.8281"/><line style="stroke:#A80036;stroke-width:1.0;" x1="167.5" x2="208.5" y1="232.8281" y2="232.8281"/><polygon fill="#A80036" points="177.5,228.8281,167.5,232.8281,177.5,236.8281,173.5,232.8281" style="stroke:#A80036;stroke-width:1.0;"/><text fill="#000000" font-family="sans-serif" font-size="13" lengthAdjust="spacing" textLength="129" x="173.5" y="214.7622">Detect human voice</text><polygon fill="#A80036" points="631,257.9609,641,261.9609,631,265.9609,635,261.9609" style="stroke:#A80036;stroke-width:1.0;"/><line style="stroke:#A80036;stroke-width:1.0;" x1="166.5" x2="637" y1="261.9609" y2="261.9609"/><text fill="#000000" font-family="sans-serif" font-size="13" lengthAdjust="spacing" textLength="195" x="173.5" y="256.895">Upload voice data to the cloud</text><polygon fill="#A80036" points="154.5,287.0938,164.5,291.0938,154.5,295.0938,158.5,291.0938" style="stroke:#A80036;stroke-width:1.0;"/><line style="stroke:#A80036;stroke-width:1.0;" x1="23.5" x2="160.5" y1="291.0938" y2="291.0938"/><text fill="#000000" font-family="sans-serif" font-size="13" lengthAdjust="spacing" textLength="97" x="30.5" y="286.0278">End voice input</text><polygon fill="#A80036" points="631,316.2266,641,320.2266,631,324.2266,635,320.2266" style="stroke:#A80036;stroke-width:1.0;"/><line style="stroke:#A80036;stroke-width:1.0;" x1="166.5" x2="637" y1="320.2266" y2="320.2266"/><text fill="#000000" font-family="sans-serif" font-size="13" lengthAdjust="spacing" textLength="364" x="173.5" y="315.1606">End upload and notify cloud that data upload is complete</text><polygon fill="#A80036" points="177.5,345.3594,167.5,349.3594,177.5,353.3594,173.5,349.3594" style="stroke:#A80036;stroke-width:1.0;"/><line style="stroke:#A80036;stroke-width:1.0;" x1="171.5" x2="642" y1="349.3594" y2="349.3594"/><text fill="#000000" font-family="sans-serif" font-size="13" lengthAdjust="spacing" textLength="233" x="183.5" y="344.2935">Convert voice to text and send down</text><line style="stroke:#A80036;stroke-width:1.0;" x1="643" x2="685" y1="378.4922" y2="378.4922"/><line style="stroke:#A80036;stroke-width:1.0;" x1="685" x2="685" y1="378.4922" y2="391.4922"/><line style="stroke:#A80036;stroke-width:1.0;" x1="644" x2="685" y1="391.4922" y2="391.4922"/><polygon fill="#A80036" points="654,387.4922,644,391.4922,654,395.4922,650,391.4922" style="stroke:#A80036;stroke-width:1.0;"/><text fill="#000000" font-family="sans-serif" font-size="13" lengthAdjust="spacing" textLength="386" x="650" y="373.4263">Use large model to generate answer based on voice content</text><polygon fill="#A80036" points="560.5,416.625,570.5,420.625,560.5,424.625,564.5,420.625" style="stroke:#A80036;stroke-width:1.0;"/><line style="stroke:#A80036;stroke-width:1.0;" x1="166.5" x2="566.5" y1="420.625" y2="420.625"/><text fill="#000000" font-family="sans-serif" font-size="13" lengthAdjust="spacing" textLength="244" x="173.5" y="415.5591">Display text information on the screen</text><polygon fill="#A80036" points="177.5,445.7578,167.5,449.7578,177.5,453.7578,173.5,449.7578" style="stroke:#A80036;stroke-width:1.0;"/><line style="stroke:#A80036;stroke-width:1.0;" x1="171.5" x2="642" y1="449.7578" y2="449.7578"/><text fill="#000000" font-family="sans-serif" font-size="13" lengthAdjust="spacing" textLength="415" x="183.5" y="444.6919">Send AI-generated content (text, voice, emoji, etc.) to the device</text><line style="stroke:#A80036;stroke-width:1.0;" x1="166.5" x2="208.5" y1="478.8906" y2="478.8906"/><line style="stroke:#A80036;stroke-width:1.0;" x1="208.5" x2="208.5" y1="478.8906" y2="491.8906"/><line style="stroke:#A80036;stroke-width:1.0;" x1="167.5" x2="208.5" y1="491.8906" y2="491.8906"/><polygon fill="#A80036" points="177.5,487.8906,167.5,491.8906,177.5,495.8906,173.5,491.8906" style="stroke:#A80036;stroke-width:1.0;"/><text fill="#000000" font-family="sans-serif" font-size="13" lengthAdjust="spacing" textLength="63" x="173.5" y="473.8247">Play voice</text><polygon fill="#A80036" points="560.5,517.0234,570.5,521.0234,560.5,525.0234,564.5,521.0234" style="stroke:#A80036;stroke-width:1.0;"/><line style="stroke:#A80036;stroke-width:1.0;" x1="166.5" x2="566.5" y1="521.0234" y2="521.0234"/><text fill="#000000" font-family="sans-serif" font-size="13" lengthAdjust="spacing" textLength="281" x="173.5" y="515.9575">Display AI text, emoji, and other information</text><line style="stroke:#A80036;stroke-width:1.0;" x1="166.5" x2="208.5" y1="550.1563" y2="550.1563"/><line style="stroke:#A80036;stroke-width:1.0;" x1="208.5" x2="208.5" y1="550.1563" y2="563.1563"/><line style="stroke:#A80036;stroke-width:1.0;" x1="167.5" x2="208.5" y1="563.1563" y2="563.1563"/><polygon fill="#A80036" points="177.5,559.1563,167.5,563.1563,177.5,567.1563,173.5,563.1563" style="stroke:#A80036;stroke-width:1.0;"/><text fill="#000000" font-family="sans-serif" font-size="13" lengthAdjust="spacing" textLength="113" x="173.5" y="545.0903">Detect wake word</text><!--MD5=[6e053abc96f22ae1ca30d73f0a04bef3]
@startuml
actor user
box "chat bot"
participant ai_audio
participant display
end box
user -> ai_audio: Say the wake word
ai_audio -> ai_audio: Wake word detected, play prompt sound, detect human voice
user -> ai_audio: Voice input
ai_audio -> ai_audio: Detect human voice
ai_audio -> cloud: Upload voice data to the cloud
user -> ai_audio: End voice input
ai_audio  -> cloud: End upload and notify cloud that data upload is complete
cloud -> ai_audio: Convert voice to text and send down
cloud -> cloud: Use large model to generate answer based on voice content
ai_audio -> display: Display text information on the screen
cloud -> ai_audio: Send AI-generated content (text, voice, emoji, etc.) to the device
ai_audio -> ai_audio: Play voice
ai_audio -> display: Display AI text, emoji, and other information
ai_audio -> ai_audio: Detect wake word
@enduml

PlantUML version 1.2021.16(Wed Dec 08 17:25:22 UTC 2021)
(GPL source distribution)
Java Runtime: OpenJDK Runtime Environment
JVM: OpenJDK 64-Bit Server VM
Default Encoding: UTF-8
Language: en
Country: null
--></g></svg>