<?xml version="1.0" encoding="UTF-8" standalone="no"?><svg xmlns="http://www.w3.org/2000/svg" xmlns:xlink="http://www.w3.org/1999/xlink" contentScriptType="application/ecmascript" contentStyleType="text/css" height="1073px" preserveAspectRatio="none" style="width:1067px;height:1073px;background:#FFFFFF;" version="1.1" viewBox="0 0 1067 1073" width="1067px" zoomAndPan="magnify"><defs><filter height="300%" id="f1tvtiuclryext" width="300%" x="-1" y="-1"><feGaussianBlur result="blurOut" stdDeviation="2.0"/><feColorMatrix in="blurOut" result="blurOut2" type="matrix" values="0 0 0 0 0 0 0 0 0 0 0 0 0 0 0 0 0 0 .4 0"/><feOffset dx="4.0" dy="4.0" in="blurOut2" result="blurOut3"/><feBlend in="SourceGraphic" in2="blurOut3" mode="normal"/></filter></defs><g><rect fill="#FFFFFF" filter="url(#f1tvtiuclryext)" height="61.3984" style="stroke:#000000;stroke-width:2.0;" width="314.5" x="10" y="84.2969"/><rect fill="#FFFFFF" filter="url(#f1tvtiuclryext)" height="61.3984" style="stroke:#000000;stroke-width:2.0;" width="322" x="232.5" y="202.8281"/><line style="stroke:#A80036;stroke-width:1.0;stroke-dasharray:5.0,5.0;" x1="46" x2="46" y1="67.2969" y2="1005.1484"/><line style="stroke:#A80036;stroke-width:1.0;stroke-dasharray:5.0,5.0;" x1="278.5" x2="278.5" y1="67.2969" y2="1005.1484"/><line style="stroke:#A80036;stroke-width:1.0;stroke-dasharray:5.0,5.0;" x1="502.5" x2="502.5" y1="67.2969" y2="1005.1484"/><line style="stroke:#A80036;stroke-width:1.0;stroke-dasharray:5.0,5.0;" x1="768" x2="768" y1="67.2969" y2="1005.1484"/><line style="stroke:#A80036;stroke-width:1.0;stroke-dasharray:5.0,5.0;" x1="948.5" x2="948.5" y1="67.2969" y2="1005.1484"/><line style="stroke:#A80036;stroke-width:1.0;stroke-dasharray:5.0,5.0;" x1="1025.5" x2="1025.5" y1="67.2969" y2="1005.1484"/><rect fill="#FEFECE" filter="url(#f1tvtiuclryext)" height="30.2969" style="stroke:#A80036;stroke-width:1.5;" width="49" x="20" y="32"/><text fill="#000000" font-family="sans-serif" font-size="14" lengthAdjust="spacing" textLength="35" x="27" y="51.9951">input</text><rect fill="#FEFECE" filter="url(#f1tvtiuclryext)" height="30.2969" style="stroke:#A80036;stroke-width:1.5;" width="49" x="20" y="1004.1484"/><text fill="#000000" font-family="sans-serif" font-size="14" lengthAdjust="spacing" textLength="35" x="27" y="1024.1436">input</text><text fill="#000000" font-family="sans-serif" font-size="14" lengthAdjust="spacing" textLength="66" x="242.5" y="63.9951">recording</text><path d="M260.5,15 C260.5,5 278.5,5 278.5,5 C278.5,5 296.5,5 296.5,15 L296.5,41 C296.5,51 278.5,51 278.5,51 C278.5,51 260.5,51 260.5,41 L260.5,15 " fill="#FEFECE" filter="url(#f1tvtiuclryext)" style="stroke:#000000;stroke-width:1.5;"/><path d="M260.5,15 C260.5,25 278.5,25 278.5,25 C278.5,25 296.5,25 296.5,15 " fill="none" style="stroke:#000000;stroke-width:1.5;"/><text fill="#000000" font-family="sans-serif" font-size="14" lengthAdjust="spacing" textLength="66" x="242.5" y="1017.1436">recording</text><path d="M260.5,1030.4453 C260.5,1020.4453 278.5,1020.4453 278.5,1020.4453 C278.5,1020.4453 296.5,1020.4453 296.5,1030.4453 L296.5,1056.4453 C296.5,1066.4453 278.5,1066.4453 278.5,1066.4453 C278.5,1066.4453 260.5,1066.4453 260.5,1056.4453 L260.5,1030.4453 " fill="#FEFECE" filter="url(#f1tvtiuclryext)" style="stroke:#000000;stroke-width:1.5;"/><path d="M260.5,1030.4453 C260.5,1040.4453 278.5,1040.4453 278.5,1040.4453 C278.5,1040.4453 296.5,1040.4453 296.5,1030.4453 " fill="none" style="stroke:#000000;stroke-width:1.5;"/><rect fill="#FEFECE" filter="url(#f1tvtiuclryext)" height="30.2969" style="stroke:#A80036;stroke-width:1.5;" width="80" x="460.5" y="32"/><text fill="#000000" font-family="sans-serif" font-size="14" lengthAdjust="spacing" textLength="66" x="467.5" y="51.9951">cloud_asr</text><rect fill="#FEFECE" filter="url(#f1tvtiuclryext)" height="30.2969" style="stroke:#A80036;stroke-width:1.5;" width="80" x="460.5" y="1004.1484"/><text fill="#000000" font-family="sans-serif" font-size="14" lengthAdjust="spacing" textLength="66" x="467.5" y="1024.1436">cloud_asr</text><rect fill="#FEFECE" filter="url(#f1tvtiuclryext)" height="30.2969" style="stroke:#A80036;stroke-width:1.5;" width="47" x="743" y="32"/><text fill="#000000" font-family="sans-serif" font-size="14" lengthAdjust="spacing" textLength="33" x="750" y="51.9951">main</text><rect fill="#FEFECE" filter="url(#f1tvtiuclryext)" height="30.2969" style="stroke:#A80036;stroke-width:1.5;" width="47" x="743" y="1004.1484"/><text fill="#000000" font-family="sans-serif" font-size="14" lengthAdjust="spacing" textLength="33" x="750" y="1024.1436">main</text><rect fill="#FEFECE" filter="url(#f1tvtiuclryext)" height="30.2969" style="stroke:#A80036;stroke-width:1.5;" width="72" x="910.5" y="32"/><text fill="#000000" font-family="sans-serif" font-size="14" lengthAdjust="spacing" textLength="58" x="917.5" y="51.9951">ai_agent</text><rect fill="#FEFECE" filter="url(#f1tvtiuclryext)" height="30.2969" style="stroke:#A80036;stroke-width:1.5;" width="72" x="910.5" y="1004.1484"/><text fill="#000000" font-family="sans-serif" font-size="14" lengthAdjust="spacing" textLength="58" x="917.5" y="1024.1436">ai_agent</text><rect fill="#FEFECE" filter="url(#f1tvtiuclryext)" height="30.2969" style="stroke:#A80036;stroke-width:1.5;" width="55" x="996.5" y="32"/><text fill="#000000" font-family="sans-serif" font-size="14" lengthAdjust="spacing" textLength="41" x="1003.5" y="51.9951">player</text><rect fill="#FEFECE" filter="url(#f1tvtiuclryext)" height="30.2969" style="stroke:#A80036;stroke-width:1.5;" width="55" x="996.5" y="1004.1484"/><text fill="#000000" font-family="sans-serif" font-size="14" lengthAdjust="spacing" textLength="41" x="1003.5" y="1024.1436">player</text><path d="M10,84.2969 L87,84.2969 L87,91.2969 L77,101.2969 L10,101.2969 L10,84.2969 " fill="#EEEEEE" style="stroke:#000000;stroke-width:1.0;"/><rect fill="none" height="61.3984" style="stroke:#000000;stroke-width:2.0;" width="314.5" x="10" y="84.2969"/><text fill="#000000" font-family="sans-serif" font-size="13" font-weight="bold" lengthAdjust="spacing" textLength="32" x="25" y="97.3638">loop</text><polygon fill="#A80036" points="266.5,133.6953,276.5,137.6953,266.5,141.6953,270.5,137.6953" style="stroke:#A80036;stroke-width:1.0;"/><line style="stroke:#A80036;stroke-width:1.0;stroke-dasharray:2.0,2.0;" x1="46.5" x2="272.5" y1="137.6953" y2="137.6953"/><text fill="#000000" font-family="sans-serif" font-size="13" lengthAdjust="spacing" textLength="208" x="53.5" y="117.4966">一直录音，保存采集到的音频数据，</text><text fill="#000000" font-family="sans-serif" font-size="13" lengthAdjust="spacing" textLength="114" x="53.5" y="132.6294">大约10ms写入一次</text><rect fill="#EEEEEE" filter="url(#f1tvtiuclryext)" height="3" style="stroke:#EEEEEE;stroke-width:1.0;" width="1060.5" x="0" y="173.2617"/><line style="stroke:#000000;stroke-width:1.0;" x1="0" x2="1060.5" y1="173.2617" y2="173.2617"/><line style="stroke:#000000;stroke-width:1.0;" x1="0" x2="1060.5" y1="176.2617" y2="176.2617"/><rect fill="#EEEEEE" filter="url(#f1tvtiuclryext)" height="23.1328" style="stroke:#000000;stroke-width:2.0;" width="71" x="494.75" y="162.6953"/><text fill="#000000" font-family="sans-serif" font-size="13" font-weight="bold" lengthAdjust="spacing" textLength="52" x="500.75" y="178.7622">待机状态</text><path d="M232.5,202.8281 L309.5,202.8281 L309.5,209.8281 L299.5,219.8281 L232.5,219.8281 L232.5,202.8281 " fill="#EEEEEE" style="stroke:#000000;stroke-width:1.0;"/><rect fill="none" height="61.3984" style="stroke:#000000;stroke-width:2.0;" width="322" x="232.5" y="202.8281"/><text fill="#000000" font-family="sans-serif" font-size="13" font-weight="bold" lengthAdjust="spacing" textLength="32" x="247.5" y="215.895">loop</text><polygon fill="#A80036" points="289.5,252.2266,279.5,256.2266,289.5,260.2266,285.5,256.2266" style="stroke:#A80036;stroke-width:1.0;"/><line style="stroke:#A80036;stroke-width:1.0;stroke-dasharray:2.0,2.0;" x1="283.5" x2="501.5" y1="256.2266" y2="256.2266"/><text fill="#000000" font-family="sans-serif" font-size="13" lengthAdjust="spacing" textLength="200" x="295.5" y="236.0278">只保存最近的600ms的音频数据，</text><text fill="#000000" font-family="sans-serif" font-size="13" lengthAdjust="spacing" textLength="135" x="295.5" y="251.1606">用于给云端 vad 的数据</text><rect fill="#EEEEEE" filter="url(#f1tvtiuclryext)" height="3" style="stroke:#EEEEEE;stroke-width:1.0;" width="1060.5" x="0" y="291.793"/><line style="stroke:#000000;stroke-width:1.0;" x1="0" x2="1060.5" y1="291.793" y2="291.793"/><line style="stroke:#000000;stroke-width:1.0;" x1="0" x2="1060.5" y1="294.793" y2="294.793"/><rect fill="#EEEEEE" filter="url(#f1tvtiuclryext)" height="23.1328" style="stroke:#000000;stroke-width:2.0;" width="97" x="481.75" y="281.2266"/><text fill="#000000" font-family="sans-serif" font-size="13" font-weight="bold" lengthAdjust="spacing" textLength="78" x="487.75" y="297.2935">手动触发会话</text><polygon fill="#A80036" points="57.5,331.4922,47.5,335.4922,57.5,339.4922,53.5,335.4922" style="stroke:#A80036;stroke-width:1.0;"/><line style="stroke:#A80036;stroke-width:1.0;" x1="51.5" x2="767.5" y1="335.4922" y2="335.4922"/><text fill="#000000" font-family="sans-serif" font-size="13" lengthAdjust="spacing" textLength="104" x="63.5" y="330.4263">使能检测有效数据</text><polygon fill="#A80036" points="756.5,360.625,766.5,364.625,756.5,368.625,760.5,364.625" style="stroke:#A80036;stroke-width:1.0;"/><line style="stroke:#A80036;stroke-width:1.0;" x1="46.5" x2="762.5" y1="364.625" y2="364.625"/><text fill="#000000" font-family="sans-serif" font-size="13" lengthAdjust="spacing" textLength="117" x="53.5" y="359.5591">检测到有效音频数据</text><polygon fill="#A80036" points="513.5,389.7578,503.5,393.7578,513.5,397.7578,509.5,393.7578" style="stroke:#A80036;stroke-width:1.0;"/><line style="stroke:#A80036;stroke-width:1.0;" x1="507.5" x2="767.5" y1="393.7578" y2="393.7578"/><text fill="#000000" font-family="sans-serif" font-size="13" lengthAdjust="spacing" textLength="104" x="519.5" y="388.6919">开始进入上报任务</text><polygon fill="#A80036" points="936.5,418.8906,946.5,422.8906,936.5,426.8906,940.5,422.8906" style="stroke:#A80036;stroke-width:1.0;"/><line style="stroke:#A80036;stroke-width:1.0;" x1="502.5" x2="942.5" y1="422.8906" y2="422.8906"/><text fill="#000000" font-family="sans-serif" font-size="13" lengthAdjust="spacing" textLength="52" x="509.5" y="417.8247">开启上报</text><rect fill="#EEEEEE" filter="url(#f1tvtiuclryext)" height="3" style="stroke:#EEEEEE;stroke-width:1.0;" width="1060.5" x="0" y="451.457"/><line style="stroke:#000000;stroke-width:1.0;" x1="0" x2="1060.5" y1="451.457" y2="451.457"/><line style="stroke:#000000;stroke-width:1.0;" x1="0" x2="1060.5" y1="454.457" y2="454.457"/><rect fill="#EEEEEE" filter="url(#f1tvtiuclryext)" height="23.1328" style="stroke:#000000;stroke-width:2.0;" width="71" x="494.75" y="440.8906"/><text fill="#000000" font-family="sans-serif" font-size="13" font-weight="bold" lengthAdjust="spacing" textLength="52" x="500.75" y="456.9575">语音输入</text><polygon fill="#A80036" points="289.5,491.1563,279.5,495.1563,289.5,499.1563,285.5,495.1563" style="stroke:#A80036;stroke-width:1.0;"/><line style="stroke:#A80036;stroke-width:1.0;stroke-dasharray:2.0,2.0;" x1="283.5" x2="501.5" y1="495.1563" y2="495.1563"/><text fill="#000000" font-family="sans-serif" font-size="13" lengthAdjust="spacing" textLength="78" x="295.5" y="490.0903">读取音频数据</text><polygon fill="#A80036" points="936.5,520.2891,946.5,524.2891,936.5,528.2891,940.5,524.2891" style="stroke:#A80036;stroke-width:1.0;"/><line style="stroke:#A80036;stroke-width:1.0;" x1="502.5" x2="942.5" y1="524.2891" y2="524.2891"/><text fill="#000000" font-family="sans-serif" font-size="13" lengthAdjust="spacing" textLength="91" x="509.5" y="519.2231">上报音频数据流</text><rect fill="#EEEEEE" filter="url(#f1tvtiuclryext)" height="3" style="stroke:#EEEEEE;stroke-width:1.0;" width="1060.5" x="0" y="552.8555"/><line style="stroke:#000000;stroke-width:1.0;" x1="0" x2="1060.5" y1="552.8555" y2="552.8555"/><line style="stroke:#000000;stroke-width:1.0;" x1="0" x2="1060.5" y1="555.8555" y2="555.8555"/><rect fill="#EEEEEE" filter="url(#f1tvtiuclryext)" height="23.1328" style="stroke:#000000;stroke-width:2.0;" width="71" x="494.75" y="542.2891"/><text fill="#000000" font-family="sans-serif" font-size="13" font-weight="bold" lengthAdjust="spacing" textLength="52" x="500.75" y="558.356">语音完毕</text><polygon fill="#A80036" points="57.5,592.5547,47.5,596.5547,57.5,600.5547,53.5,596.5547" style="stroke:#A80036;stroke-width:1.0;"/><line style="stroke:#A80036;stroke-width:1.0;" x1="51.5" x2="767.5" y1="596.5547" y2="596.5547"/><text fill="#000000" font-family="sans-serif" font-size="13" lengthAdjust="spacing" textLength="117" x="63.5" y="591.4888">去使能检测有效数据</text><polygon fill="#A80036" points="756.5,621.6875,766.5,625.6875,756.5,629.6875,760.5,625.6875" style="stroke:#A80036;stroke-width:1.0;"/><line style="stroke:#A80036;stroke-width:1.0;" x1="46.5" x2="762.5" y1="625.6875" y2="625.6875"/><text fill="#000000" font-family="sans-serif" font-size="13" lengthAdjust="spacing" textLength="130" x="53.5" y="620.6216">有效音频数据采集结束</text><polygon fill="#A80036" points="513.5,650.8203,503.5,654.8203,513.5,658.8203,509.5,654.8203" style="stroke:#A80036;stroke-width:1.0;"/><line style="stroke:#A80036;stroke-width:1.0;" x1="507.5" x2="767.5" y1="654.8203" y2="654.8203"/><text fill="#000000" font-family="sans-serif" font-size="13" lengthAdjust="spacing" textLength="78" x="519.5" y="649.7544">结束上报任务</text><polygon fill="#A80036" points="289.5,679.9531,279.5,683.9531,289.5,687.9531,285.5,683.9531" style="stroke:#A80036;stroke-width:1.0;"/><line style="stroke:#A80036;stroke-width:1.0;stroke-dasharray:2.0,2.0;" x1="283.5" x2="501.5" y1="683.9531" y2="683.9531"/><text fill="#000000" font-family="sans-serif" font-size="13" lengthAdjust="spacing" textLength="130" x="295.5" y="678.8872">读完缓存中的音频数据</text><polygon fill="#A80036" points="936.5,709.0859,946.5,713.0859,936.5,717.0859,940.5,713.0859" style="stroke:#A80036;stroke-width:1.0;"/><line style="stroke:#A80036;stroke-width:1.0;" x1="502.5" x2="942.5" y1="713.0859" y2="713.0859"/><text fill="#000000" font-family="sans-serif" font-size="13" lengthAdjust="spacing" textLength="91" x="509.5" y="708.02">上报音频数据流</text><polygon fill="#A80036" points="936.5,738.2188,946.5,742.2188,936.5,746.2188,940.5,742.2188" style="stroke:#A80036;stroke-width:1.0;"/><line style="stroke:#A80036;stroke-width:1.0;" x1="502.5" x2="942.5" y1="742.2188" y2="742.2188"/><text fill="#000000" font-family="sans-serif" font-size="13" lengthAdjust="spacing" textLength="91" x="509.5" y="737.1528">结束音频流上报</text><line style="stroke:#A80036;stroke-width:1.0;" x1="502.5" x2="544.5" y1="771.3516" y2="771.3516"/><line style="stroke:#A80036;stroke-width:1.0;" x1="544.5" x2="544.5" y1="771.3516" y2="784.3516"/><line style="stroke:#A80036;stroke-width:1.0;" x1="503.5" x2="544.5" y1="784.3516" y2="784.3516"/><polygon fill="#A80036" points="513.5,780.3516,503.5,784.3516,513.5,788.3516,509.5,784.3516" style="stroke:#A80036;stroke-width:1.0;"/><text fill="#000000" font-family="sans-serif" font-size="13" lengthAdjust="spacing" textLength="82" x="509.5" y="766.2856">等待云端 ASR</text><polygon fill="#A80036" points="779.5,809.4844,769.5,813.4844,779.5,817.4844,775.5,813.4844" style="stroke:#A80036;stroke-width:1.0;"/><line style="stroke:#A80036;stroke-width:1.0;" x1="773.5" x2="947.5" y1="813.4844" y2="813.4844"/><text fill="#000000" font-family="sans-serif" font-size="13" lengthAdjust="spacing" textLength="112" x="785.5" y="808.4185">返回 ASR 后的文本</text><polygon fill="#A80036" points="513.5,838.6172,503.5,842.6172,513.5,846.6172,509.5,842.6172" style="stroke:#A80036;stroke-width:1.0;"/><line style="stroke:#A80036;stroke-width:1.0;" x1="507.5" x2="767.5" y1="842.6172" y2="842.6172"/><text fill="#000000" font-family="sans-serif" font-size="13" lengthAdjust="spacing" textLength="242" x="519.5" y="837.5513">已收到 ASR 结果，上报状态可变成空闲态</text><rect fill="#EEEEEE" filter="url(#f1tvtiuclryext)" height="3" style="stroke:#EEEEEE;stroke-width:1.0;" width="1060.5" x="0" y="871.1836"/><line style="stroke:#000000;stroke-width:1.0;" x1="0" x2="1060.5" y1="871.1836" y2="871.1836"/><line style="stroke:#000000;stroke-width:1.0;" x1="0" x2="1060.5" y1="874.1836" y2="874.1836"/><rect fill="#EEEEEE" filter="url(#f1tvtiuclryext)" height="23.1328" style="stroke:#000000;stroke-width:2.0;" width="147" x="456.75" y="860.6172"/><text fill="#000000" font-family="sans-serif" font-size="13" font-weight="bold" lengthAdjust="spacing" textLength="128" x="462.75" y="876.6841">云端下发 AI 回复信息</text><polygon fill="#A80036" points="779.5,910.8828,769.5,914.8828,779.5,918.8828,775.5,914.8828" style="stroke:#A80036;stroke-width:1.0;"/><line style="stroke:#A80036;stroke-width:1.0;" x1="773.5" x2="947.5" y1="914.8828" y2="914.8828"/><text fill="#000000" font-family="sans-serif" font-size="13" lengthAdjust="spacing" textLength="156" x="785.5" y="909.8169">通知文本信息以及音频信息</text><polygon fill="#A80036" points="1014,940.0156,1024,944.0156,1014,948.0156,1018,944.0156" style="stroke:#A80036;stroke-width:1.0;"/><line style="stroke:#A80036;stroke-width:1.0;" x1="768.5" x2="1020" y1="944.0156" y2="944.0156"/><text fill="#000000" font-family="sans-serif" font-size="13" lengthAdjust="spacing" textLength="143" x="775.5" y="938.9497">播放云端下发的音频数据</text><rect fill="#EEEEEE" filter="url(#f1tvtiuclryext)" height="3" style="stroke:#EEEEEE;stroke-width:1.0;" width="1060.5" x="0" y="972.582"/><line style="stroke:#000000;stroke-width:1.0;" x1="0" x2="1060.5" y1="972.582" y2="972.582"/><line style="stroke:#000000;stroke-width:1.0;" x1="0" x2="1060.5" y1="975.582" y2="975.582"/><rect fill="#EEEEEE" filter="url(#f1tvtiuclryext)" height="23.1328" style="stroke:#000000;stroke-width:2.0;" width="97" x="481.75" y="962.0156"/><text fill="#000000" font-family="sans-serif" font-size="13" font-weight="bold" lengthAdjust="spacing" textLength="78" x="487.75" y="978.0825">单次会话结束</text><!--MD5=[2102a2a5bdd18eebd6af99dd0dbd4c9e]
@startuml
participant input 
database recording
loop
input - -> recording: 一直录音，保存采集到的音频数据，\n大约10ms写入一次
end
== 待机状态 ==
loop
cloud_asr - -> recording: 只保存最近的600ms的音频数据，\n用于给云端 vad 的数据
end
== 手动触发会话 ==
main -> input: 使能检测有效数据
input -> main:检测到有效音频数据
main -> cloud_asr:开始进入上报任务
cloud_asr -> ai_agent: 开启上报
== 语音输入 ==
cloud_asr - -> recording: 读取音频数据
cloud_asr -> ai_agent:上报音频数据流
== 语音完毕 ==
main -> input: 去使能检测有效数据
input -> main:有效音频数据采集结束
main -> cloud_asr:结束上报任务
cloud_asr- -> recording: 读完缓存中的音频数据
cloud_asr -> ai_agent:上报音频数据流
cloud_asr -> ai_agent:结束音频流上报
cloud_asr -> cloud_asr: 等待云端 ASR
ai_agent -> main: 返回 ASR 后的文本
main -> cloud_asr:已收到 ASR 结果，上报状态可变成空闲态
== 云端下发 AI 回复信息 ==
ai_agent -> main:通知文本信息以及音频信息
main -> player:播放云端下发的音频数据
== 单次会话结束 ==
@enduml

PlantUML version 1.2021.16(Wed Dec 08 17:25:22 UTC 2021)
(GPL source distribution)
Java Runtime: OpenJDK Runtime Environment
JVM: OpenJDK 64-Bit Server VM
Default Encoding: UTF-8
Language: en
Country: null
--></g></svg>