<?xml version="1.0" encoding="UTF-8" standalone="no"?><svg xmlns="http://www.w3.org/2000/svg" xmlns:xlink="http://www.w3.org/1999/xlink" contentScriptType="application/ecmascript" contentStyleType="text/css" height="1073px" preserveAspectRatio="none" style="width:1467px;height:1073px;background:#FFFFFF;" version="1.1" viewBox="0 0 1467 1073" width="1467px" zoomAndPan="magnify"><defs><filter height="300%" id="f1c7ogdc447vcd" width="300%" x="-1" y="-1"><feGaussianBlur result="blurOut" stdDeviation="2.0"/><feColorMatrix in="blurOut" result="blurOut2" type="matrix" values="0 0 0 0 0 0 0 0 0 0 0 0 0 0 0 0 0 0 .4 0"/><feOffset dx="4.0" dy="4.0" in="blurOut2" result="blurOut3"/><feBlend in="SourceGraphic" in2="blurOut3" mode="normal"/></filter></defs><g><rect fill="#FFFFFF" filter="url(#f1c7ogdc447vcd)" height="61.3984" style="stroke:#000000;stroke-width:2.0;" width="457.5" x="10" y="84.2969"/><rect fill="#FFFFFF" filter="url(#f1c7ogdc447vcd)" height="61.3984" style="stroke:#000000;stroke-width:2.0;" width="431" x="375.5" y="202.8281"/><line style="stroke:#A80036;stroke-width:1.0;stroke-dasharray:5.0,5.0;" x1="46" x2="46" y1="67.2969" y2="1005.1484"/><line style="stroke:#A80036;stroke-width:1.0;stroke-dasharray:5.0,5.0;" x1="421.5" x2="421.5" y1="67.2969" y2="1005.1484"/><line style="stroke:#A80036;stroke-width:1.0;stroke-dasharray:5.0,5.0;" x1="754.5" x2="754.5" y1="67.2969" y2="1005.1484"/><line style="stroke:#A80036;stroke-width:1.0;stroke-dasharray:5.0,5.0;" x1="1114" x2="1114" y1="67.2969" y2="1005.1484"/><line style="stroke:#A80036;stroke-width:1.0;stroke-dasharray:5.0,5.0;" x1="1348.5" x2="1348.5" y1="67.2969" y2="1005.1484"/><line style="stroke:#A80036;stroke-width:1.0;stroke-dasharray:5.0,5.0;" x1="1425.5" x2="1425.5" y1="67.2969" y2="1005.1484"/><rect fill="#FEFECE" filter="url(#f1c7ogdc447vcd)" height="30.2969" style="stroke:#A80036;stroke-width:1.5;" width="49" x="20" y="32"/><text fill="#000000" font-family="sans-serif" font-size="14" lengthAdjust="spacing" textLength="35" x="27" y="51.9951">input</text><rect fill="#FEFECE" filter="url(#f1c7ogdc447vcd)" height="30.2969" style="stroke:#A80036;stroke-width:1.5;" width="49" x="20" y="1004.1484"/><text fill="#000000" font-family="sans-serif" font-size="14" lengthAdjust="spacing" textLength="35" x="27" y="1024.1436">input</text><text fill="#000000" font-family="sans-serif" font-size="14" lengthAdjust="spacing" textLength="66" x="385.5" y="63.9951">recording</text><path d="M403.5,15 C403.5,5 421.5,5 421.5,5 C421.5,5 439.5,5 439.5,15 L439.5,41 C439.5,51 421.5,51 421.5,51 C421.5,51 403.5,51 403.5,41 L403.5,15 " fill="#FEFECE" filter="url(#f1c7ogdc447vcd)" style="stroke:#000000;stroke-width:1.5;"/><path d="M403.5,15 C403.5,25 421.5,25 421.5,25 C421.5,25 439.5,25 439.5,15 " fill="none" style="stroke:#000000;stroke-width:1.5;"/><text fill="#000000" font-family="sans-serif" font-size="14" lengthAdjust="spacing" textLength="66" x="385.5" y="1017.1436">recording</text><path d="M403.5,1030.4453 C403.5,1020.4453 421.5,1020.4453 421.5,1020.4453 C421.5,1020.4453 439.5,1020.4453 439.5,1030.4453 L439.5,1056.4453 C439.5,1066.4453 421.5,1066.4453 421.5,1066.4453 C421.5,1066.4453 403.5,1066.4453 403.5,1056.4453 L403.5,1030.4453 " fill="#FEFECE" filter="url(#f1c7ogdc447vcd)" style="stroke:#000000;stroke-width:1.5;"/><path d="M403.5,1030.4453 C403.5,1040.4453 421.5,1040.4453 421.5,1040.4453 C421.5,1040.4453 439.5,1040.4453 439.5,1030.4453 " fill="none" style="stroke:#000000;stroke-width:1.5;"/><rect fill="#FEFECE" filter="url(#f1c7ogdc447vcd)" height="30.2969" style="stroke:#A80036;stroke-width:1.5;" width="80" x="712.5" y="32"/><text fill="#000000" font-family="sans-serif" font-size="14" lengthAdjust="spacing" textLength="66" x="719.5" y="51.9951">cloud_asr</text><rect fill="#FEFECE" filter="url(#f1c7ogdc447vcd)" height="30.2969" style="stroke:#A80036;stroke-width:1.5;" width="80" x="712.5" y="1004.1484"/><text fill="#000000" font-family="sans-serif" font-size="14" lengthAdjust="spacing" textLength="66" x="719.5" y="1024.1436">cloud_asr</text><rect fill="#FEFECE" filter="url(#f1c7ogdc447vcd)" height="30.2969" style="stroke:#A80036;stroke-width:1.5;" width="47" x="1089" y="32"/><text fill="#000000" font-family="sans-serif" font-size="14" lengthAdjust="spacing" textLength="33" x="1096" y="51.9951">main</text><rect fill="#FEFECE" filter="url(#f1c7ogdc447vcd)" height="30.2969" style="stroke:#A80036;stroke-width:1.5;" width="47" x="1089" y="1004.1484"/><text fill="#000000" font-family="sans-serif" font-size="14" lengthAdjust="spacing" textLength="33" x="1096" y="1024.1436">main</text><rect fill="#FEFECE" filter="url(#f1c7ogdc447vcd)" height="30.2969" style="stroke:#A80036;stroke-width:1.5;" width="72" x="1310.5" y="32"/><text fill="#000000" font-family="sans-serif" font-size="14" lengthAdjust="spacing" textLength="58" x="1317.5" y="51.9951">ai_agent</text><rect fill="#FEFECE" filter="url(#f1c7ogdc447vcd)" height="30.2969" style="stroke:#A80036;stroke-width:1.5;" width="72" x="1310.5" y="1004.1484"/><text fill="#000000" font-family="sans-serif" font-size="14" lengthAdjust="spacing" textLength="58" x="1317.5" y="1024.1436">ai_agent</text><rect fill="#FEFECE" filter="url(#f1c7ogdc447vcd)" height="30.2969" style="stroke:#A80036;stroke-width:1.5;" width="55" x="1396.5" y="32"/><text fill="#000000" font-family="sans-serif" font-size="14" lengthAdjust="spacing" textLength="41" x="1403.5" y="51.9951">player</text><rect fill="#FEFECE" filter="url(#f1c7ogdc447vcd)" height="30.2969" style="stroke:#A80036;stroke-width:1.5;" width="55" x="1396.5" y="1004.1484"/><text fill="#000000" font-family="sans-serif" font-size="14" lengthAdjust="spacing" textLength="41" x="1403.5" y="1024.1436">player</text><path d="M10,84.2969 L87,84.2969 L87,91.2969 L77,101.2969 L10,101.2969 L10,84.2969 " fill="#EEEEEE" style="stroke:#000000;stroke-width:1.0;"/><rect fill="none" height="61.3984" style="stroke:#000000;stroke-width:2.0;" width="457.5" x="10" y="84.2969"/><text fill="#000000" font-family="sans-serif" font-size="13" font-weight="bold" lengthAdjust="spacing" textLength="32" x="25" y="97.3638">loop</text><polygon fill="#A80036" points="409.5,133.6953,419.5,137.6953,409.5,141.6953,413.5,137.6953" style="stroke:#A80036;stroke-width:1.0;"/><line style="stroke:#A80036;stroke-width:1.0;stroke-dasharray:2.0,2.0;" x1="46.5" x2="415.5" y1="137.6953" y2="137.6953"/><text fill="#000000" font-family="sans-serif" font-size="13" lengthAdjust="spacing" textLength="351" x="53.5" y="117.4966">Continuously record and save the collected audio data,</text><text fill="#000000" font-family="sans-serif" font-size="13" lengthAdjust="spacing" textLength="155" x="53.5" y="132.6294">write once every ~10ms</text><rect fill="#EEEEEE" filter="url(#f1c7ogdc447vcd)" height="3" style="stroke:#EEEEEE;stroke-width:1.0;" width="1460.5" x="0" y="173.2617"/><line style="stroke:#000000;stroke-width:1.0;" x1="0" x2="1460.5" y1="173.2617" y2="173.2617"/><line style="stroke:#000000;stroke-width:1.0;" x1="0" x2="1460.5" y1="176.2617" y2="176.2617"/><rect fill="#EEEEEE" filter="url(#f1c7ogdc447vcd)" height="23.1328" style="stroke:#000000;stroke-width:2.0;" width="123" x="668.75" y="162.6953"/><text fill="#000000" font-family="sans-serif" font-size="13" font-weight="bold" lengthAdjust="spacing" textLength="104" x="674.75" y="178.7622">Standby state</text><path d="M375.5,202.8281 L452.5,202.8281 L452.5,209.8281 L442.5,219.8281 L375.5,219.8281 L375.5,202.8281 " fill="#EEEEEE" style="stroke:#000000;stroke-width:1.0;"/><rect fill="none" height="61.3984" style="stroke:#000000;stroke-width:2.0;" width="431" x="375.5" y="202.8281"/><text fill="#000000" font-family="sans-serif" font-size="13" font-weight="bold" lengthAdjust="spacing" textLength="32" x="390.5" y="215.895">loop</text><polygon fill="#A80036" points="432.5,252.2266,422.5,256.2266,432.5,260.2266,428.5,256.2266" style="stroke:#A80036;stroke-width:1.0;"/><line style="stroke:#A80036;stroke-width:1.0;stroke-dasharray:2.0,2.0;" x1="426.5" x2="753.5" y1="256.2266" y2="256.2266"/><text fill="#000000" font-family="sans-serif" font-size="13" lengthAdjust="spacing" textLength="309" x="438.5" y="236.0278">Only save the most recent 600ms of audio data,</text><text fill="#000000" font-family="sans-serif" font-size="13" lengthAdjust="spacing" textLength="130" x="438.5" y="251.1606">for cloud VAD usage</text><rect fill="#EEEEEE" filter="url(#f1c7ogdc447vcd)" height="3" style="stroke:#EEEEEE;stroke-width:1.0;" width="1460.5" x="0" y="291.793"/><line style="stroke:#000000;stroke-width:1.0;" x1="0" x2="1460.5" y1="291.793" y2="291.793"/><line style="stroke:#000000;stroke-width:1.0;" x1="0" x2="1460.5" y1="294.793" y2="294.793"/><rect fill="#EEEEEE" filter="url(#f1c7ogdc447vcd)" height="23.1328" style="stroke:#000000;stroke-width:2.0;" width="219" x="620.75" y="281.2266"/><text fill="#000000" font-family="sans-serif" font-size="13" font-weight="bold" lengthAdjust="spacing" textLength="200" x="626.75" y="297.2935">Manually triggered session</text><polygon fill="#A80036" points="57.5,331.4922,47.5,335.4922,57.5,339.4922,53.5,335.4922" style="stroke:#A80036;stroke-width:1.0;"/><line style="stroke:#A80036;stroke-width:1.0;" x1="51.5" x2="1113.5" y1="335.4922" y2="335.4922"/><text fill="#000000" font-family="sans-serif" font-size="13" lengthAdjust="spacing" textLength="173" x="63.5" y="330.4263">Enable valid data detection</text><polygon fill="#A80036" points="1102.5,360.625,1112.5,364.625,1102.5,368.625,1106.5,364.625" style="stroke:#A80036;stroke-width:1.0;"/><line style="stroke:#A80036;stroke-width:1.0;" x1="46.5" x2="1108.5" y1="364.625" y2="364.625"/><text fill="#000000" font-family="sans-serif" font-size="13" lengthAdjust="spacing" textLength="164" x="53.5" y="359.5591">Valid audio data detected</text><polygon fill="#A80036" points="765.5,389.7578,755.5,393.7578,765.5,397.7578,761.5,393.7578" style="stroke:#A80036;stroke-width:1.0;"/><line style="stroke:#A80036;stroke-width:1.0;" x1="759.5" x2="1113.5" y1="393.7578" y2="393.7578"/><text fill="#000000" font-family="sans-serif" font-size="13" lengthAdjust="spacing" textLength="125" x="771.5" y="388.6919">Start reporting task</text><polygon fill="#A80036" points="1336.5,418.8906,1346.5,422.8906,1336.5,426.8906,1340.5,422.8906" style="stroke:#A80036;stroke-width:1.0;"/><line style="stroke:#A80036;stroke-width:1.0;" x1="754.5" x2="1342.5" y1="422.8906" y2="422.8906"/><text fill="#000000" font-family="sans-serif" font-size="13" lengthAdjust="spacing" textLength="94" x="761.5" y="417.8247">Start reporting</text><rect fill="#EEEEEE" filter="url(#f1c7ogdc447vcd)" height="3" style="stroke:#EEEEEE;stroke-width:1.0;" width="1460.5" x="0" y="451.457"/><line style="stroke:#000000;stroke-width:1.0;" x1="0" x2="1460.5" y1="451.457" y2="451.457"/><line style="stroke:#000000;stroke-width:1.0;" x1="0" x2="1460.5" y1="454.457" y2="454.457"/><rect fill="#EEEEEE" filter="url(#f1c7ogdc447vcd)" height="23.1328" style="stroke:#000000;stroke-width:2.0;" width="102" x="679.25" y="440.8906"/><text fill="#000000" font-family="sans-serif" font-size="13" font-weight="bold" lengthAdjust="spacing" textLength="83" x="685.25" y="456.9575">Voice input</text><polygon fill="#A80036" points="432.5,491.1563,422.5,495.1563,432.5,499.1563,428.5,495.1563" style="stroke:#A80036;stroke-width:1.0;"/><line style="stroke:#A80036;stroke-width:1.0;stroke-dasharray:2.0,2.0;" x1="426.5" x2="753.5" y1="495.1563" y2="495.1563"/><text fill="#000000" font-family="sans-serif" font-size="13" lengthAdjust="spacing" textLength="104" x="438.5" y="490.0903">Read audio data</text><polygon fill="#A80036" points="1336.5,520.2891,1346.5,524.2891,1336.5,528.2891,1340.5,524.2891" style="stroke:#A80036;stroke-width:1.0;"/><line style="stroke:#A80036;stroke-width:1.0;" x1="754.5" x2="1342.5" y1="524.2891" y2="524.2891"/><text fill="#000000" font-family="sans-serif" font-size="13" lengthAdjust="spacing" textLength="164" x="761.5" y="519.2231">Report audio data stream</text><rect fill="#EEEEEE" filter="url(#f1c7ogdc447vcd)" height="3" style="stroke:#EEEEEE;stroke-width:1.0;" width="1460.5" x="0" y="552.8555"/><line style="stroke:#000000;stroke-width:1.0;" x1="0" x2="1460.5" y1="552.8555" y2="552.8555"/><line style="stroke:#000000;stroke-width:1.0;" x1="0" x2="1460.5" y1="555.8555" y2="555.8555"/><rect fill="#EEEEEE" filter="url(#f1c7ogdc447vcd)" height="23.1328" style="stroke:#000000;stroke-width:2.0;" width="123" x="668.75" y="542.2891"/><text fill="#000000" font-family="sans-serif" font-size="13" font-weight="bold" lengthAdjust="spacing" textLength="104" x="674.75" y="558.356">Voice finished</text><polygon fill="#A80036" points="57.5,592.5547,47.5,596.5547,57.5,600.5547,53.5,596.5547" style="stroke:#A80036;stroke-width:1.0;"/><line style="stroke:#A80036;stroke-width:1.0;" x1="51.5" x2="1113.5" y1="596.5547" y2="596.5547"/><text fill="#000000" font-family="sans-serif" font-size="13" lengthAdjust="spacing" textLength="177" x="63.5" y="591.4888">Disable valid data detection</text><polygon fill="#A80036" points="1102.5,621.6875,1112.5,625.6875,1102.5,629.6875,1106.5,625.6875" style="stroke:#A80036;stroke-width:1.0;"/><line style="stroke:#A80036;stroke-width:1.0;" x1="46.5" x2="1108.5" y1="625.6875" y2="625.6875"/><text fill="#000000" font-family="sans-serif" font-size="13" lengthAdjust="spacing" textLength="211" x="53.5" y="620.6216">Valid audio data collection ended</text><polygon fill="#A80036" points="765.5,650.8203,755.5,654.8203,765.5,658.8203,761.5,654.8203" style="stroke:#A80036;stroke-width:1.0;"/><line style="stroke:#A80036;stroke-width:1.0;" x1="759.5" x2="1113.5" y1="654.8203" y2="654.8203"/><text fill="#000000" font-family="sans-serif" font-size="13" lengthAdjust="spacing" textLength="117" x="771.5" y="649.7544">End reporting task</text><polygon fill="#A80036" points="432.5,679.9531,422.5,683.9531,432.5,687.9531,428.5,683.9531" style="stroke:#A80036;stroke-width:1.0;"/><line style="stroke:#A80036;stroke-width:1.0;stroke-dasharray:2.0,2.0;" x1="426.5" x2="753.5" y1="683.9531" y2="683.9531"/><text fill="#000000" font-family="sans-serif" font-size="13" lengthAdjust="spacing" textLength="222" x="438.5" y="678.8872">Read remaining cached audio data</text><polygon fill="#A80036" points="1336.5,709.0859,1346.5,713.0859,1336.5,717.0859,1340.5,713.0859" style="stroke:#A80036;stroke-width:1.0;"/><line style="stroke:#A80036;stroke-width:1.0;" x1="754.5" x2="1342.5" y1="713.0859" y2="713.0859"/><text fill="#000000" font-family="sans-serif" font-size="13" lengthAdjust="spacing" textLength="164" x="761.5" y="708.02">Report audio data stream</text><polygon fill="#A80036" points="1336.5,738.2188,1346.5,742.2188,1336.5,746.2188,1340.5,742.2188" style="stroke:#A80036;stroke-width:1.0;"/><line style="stroke:#A80036;stroke-width:1.0;" x1="754.5" x2="1342.5" y1="742.2188" y2="742.2188"/><text fill="#000000" font-family="sans-serif" font-size="13" lengthAdjust="spacing" textLength="175" x="761.5" y="737.1528">End audio stream reporting</text><line style="stroke:#A80036;stroke-width:1.0;" x1="754.5" x2="796.5" y1="771.3516" y2="771.3516"/><line style="stroke:#A80036;stroke-width:1.0;" x1="796.5" x2="796.5" y1="771.3516" y2="784.3516"/><line style="stroke:#A80036;stroke-width:1.0;" x1="755.5" x2="796.5" y1="784.3516" y2="784.3516"/><polygon fill="#A80036" points="765.5,780.3516,755.5,784.3516,765.5,788.3516,761.5,784.3516" style="stroke:#A80036;stroke-width:1.0;"/><text fill="#000000" font-family="sans-serif" font-size="13" lengthAdjust="spacing" textLength="116" x="761.5" y="766.2856">Wait for cloud ASR</text><polygon fill="#A80036" points="1125.5,809.4844,1115.5,813.4844,1125.5,817.4844,1121.5,813.4844" style="stroke:#A80036;stroke-width:1.0;"/><line style="stroke:#A80036;stroke-width:1.0;" x1="1119.5" x2="1347.5" y1="813.4844" y2="813.4844"/><text fill="#000000" font-family="sans-serif" font-size="13" lengthAdjust="spacing" textLength="135" x="1131.5" y="808.4185">Return text after ASR</text><polygon fill="#A80036" points="765.5,838.6172,755.5,842.6172,765.5,846.6172,761.5,842.6172" style="stroke:#A80036;stroke-width:1.0;"/><line style="stroke:#A80036;stroke-width:1.0;" x1="759.5" x2="1113.5" y1="842.6172" y2="842.6172"/><text fill="#000000" font-family="sans-serif" font-size="13" lengthAdjust="spacing" textLength="336" x="771.5" y="837.5513">ASR result received, reporting state can become idle</text><rect fill="#EEEEEE" filter="url(#f1c7ogdc447vcd)" height="3" style="stroke:#EEEEEE;stroke-width:1.0;" width="1460.5" x="0" y="871.1836"/><line style="stroke:#000000;stroke-width:1.0;" x1="0" x2="1460.5" y1="871.1836" y2="871.1836"/><line style="stroke:#000000;stroke-width:1.0;" x1="0" x2="1460.5" y1="874.1836" y2="874.1836"/><rect fill="#EEEEEE" filter="url(#f1c7ogdc447vcd)" height="23.1328" style="stroke:#000000;stroke-width:2.0;" width="261" x="599.75" y="860.6172"/><text fill="#000000" font-family="sans-serif" font-size="13" font-weight="bold" lengthAdjust="spacing" textLength="242" x="605.75" y="876.6841">Cloud sends AI reply information</text><polygon fill="#A80036" points="1125.5,910.8828,1115.5,914.8828,1125.5,918.8828,1121.5,914.8828" style="stroke:#A80036;stroke-width:1.0;"/><line style="stroke:#A80036;stroke-width:1.0;" x1="1119.5" x2="1347.5" y1="914.8828" y2="914.8828"/><text fill="#000000" font-family="sans-serif" font-size="13" lengthAdjust="spacing" textLength="210" x="1131.5" y="909.8169">Notify text and audio information</text><polygon fill="#A80036" points="1414,940.0156,1424,944.0156,1414,948.0156,1418,944.0156" style="stroke:#A80036;stroke-width:1.0;"/><line style="stroke:#A80036;stroke-width:1.0;" x1="1114.5" x2="1420" y1="944.0156" y2="944.0156"/><text fill="#000000" font-family="sans-serif" font-size="13" lengthAdjust="spacing" textLength="202" x="1121.5" y="938.9497">Play audio data sent from cloud</text><rect fill="#EEEEEE" filter="url(#f1c7ogdc447vcd)" height="3" style="stroke:#EEEEEE;stroke-width:1.0;" width="1460.5" x="0" y="972.582"/><line style="stroke:#000000;stroke-width:1.0;" x1="0" x2="1460.5" y1="972.582" y2="972.582"/><line style="stroke:#000000;stroke-width:1.0;" x1="0" x2="1460.5" y1="975.582" y2="975.582"/><rect fill="#EEEEEE" filter="url(#f1c7ogdc447vcd)" height="23.1328" style="stroke:#000000;stroke-width:2.0;" width="176" x="642.25" y="962.0156"/><text fill="#000000" font-family="sans-serif" font-size="13" font-weight="bold" lengthAdjust="spacing" textLength="157" x="648.25" y="978.0825">Single session ended</text><!--MD5=[2022c8ee68d9f2c137a0b163c945d606]
@startuml
participant input 
database recording
loop
input - -> recording: Continuously record and save the collected audio data,\nwrite once every ~10ms
end
== Standby state ==
loop
cloud_asr - -> recording: Only save the most recent 600ms of audio data,\nfor cloud VAD usage
end
== Manually triggered session ==
main -> input: Enable valid data detection
input -> main: Valid audio data detected
main -> cloud_asr: Start reporting task
cloud_asr -> ai_agent: Start reporting
== Voice input ==
cloud_asr - -> recording: Read audio data
cloud_asr -> ai_agent: Report audio data stream
== Voice finished ==
main -> input: Disable valid data detection
input -> main: Valid audio data collection ended
main -> cloud_asr: End reporting task
cloud_asr- -> recording: Read remaining cached audio data
cloud_asr -> ai_agent: Report audio data stream
cloud_asr -> ai_agent: End audio stream reporting
cloud_asr -> cloud_asr: Wait for cloud ASR
ai_agent -> main: Return text after ASR
main -> cloud_asr: ASR result received, reporting state can become idle
== Cloud sends AI reply information ==
ai_agent -> main: Notify text and audio information
main -> player: Play audio data sent from cloud
== Single session ended ==
@enduml

PlantUML version 1.2021.16(Wed Dec 08 17:25:22 UTC 2021)
(GPL source distribution)
Java Runtime: OpenJDK Runtime Environment
JVM: OpenJDK 64-Bit Server VM
Default Encoding: UTF-8
Language: en
Country: null
--></g></svg>